<?xml version="1.0" encoding="UTF-8"?>
<svg version="1.1" xmlns="http://www.w3.org/2000/svg" width="389" height="476">
<path d="M0 0 C0.84290588 0.00270905 1.68581177 0.00541809 2.55426025 0.00820923 C16.60304435 0.07632676 30.11618615 1.11378834 43.8125 4.4375 C44.96468018 4.71037842 44.96468018 4.71037842 46.14013672 4.98876953 C67.20048189 10.14668729 87.55276864 19.96193418 105.28125 32.37890625 C106.84155099 33.51067734 106.84155099 33.51067734 108.8125 34.4375 C109.92839757 35.55339757 111.04164575 36.6720216 112.14453125 37.80078125 C114.19966113 39.81740752 116.34594499 41.71441746 118.5 43.625 C130.24855605 54.21084814 140.92639722 65.61677072 148.8125 79.4375 C156.01081637 79.19755612 160.82996419 77.20557545 167.11328125 73.71484375 C169.8125 72.4375 169.8125 72.4375 173.8125 72.4375 C174.1425 71.7775 174.4725 71.1175 174.8125 70.4375 C174.8125 71.0975 174.8125 71.7575 174.8125 72.4375 C175.410625 72.623125 176.00875 72.80875 176.625 73 C180.55507335 75.58261963 181.4466535 79.90759647 182.5 84.3125 C184.00785836 99.39108363 180.19563968 113.8110826 171.8125 126.4375 C169.86635719 128.78046043 167.77974271 130.97538574 165.6875 133.1875 C162.03951101 137.13139786 162.03951101 137.13139786 160.453125 142.171875 C161.00962068 145.34928582 161.90845918 148.34038677 162.8125 151.4375 C163.43580636 154.69414934 163.91138237 157.96722478 164.375 161.25 C164.56920532 162.58961792 164.56920532 162.58961792 164.76733398 163.95629883 C165.69102651 170.67067361 166.20915201 177.35514514 166.5 184.125 C166.5427002 185.08116211 166.58540039 186.03732422 166.62939453 187.02246094 C166.79751292 191.60310062 166.81749866 196.10474009 166.515625 200.6796875 C166.25022655 205.07094408 166.07636228 209.08281515 166.8125 213.4375 C169.0886915 215.84414516 171.07593785 216.81328073 174.12109375 218.078125 C178.81709594 220.44998097 181.35018066 224.90422334 183.8125 229.4375 C183.8125 230.0975 183.8125 230.7575 183.8125 231.4375 C184.4725 231.7675 185.1325 232.0975 185.8125 232.4375 C192.83101148 249.96698801 190.49757212 269.69111677 183.44140625 286.77734375 C178.43964602 298.27106415 170.58374948 310.07410096 158.8125 315.4375 C158.1525 315.4375 157.4925 315.4375 156.8125 315.4375 C156.65394531 316.32308594 156.49539063 317.20867187 156.33203125 318.12109375 C153.18220224 334.84477151 148.23148387 350.10896539 140.8125 365.4375 C140.46703125 366.15969727 140.1215625 366.88189453 139.765625 367.62597656 C122.75854358 402.76654125 91.59021523 432.11025761 54.58911133 445.18359375 C51.02244482 446.3647054 47.4320518 447.43141786 43.8125 448.4375 C42.71035156 448.75203125 41.60820312 449.0665625 40.47265625 449.390625 C3.09440522 459.00621543 -36.85129274 451.73818859 -69.98632812 432.75195312 C-75.66885017 429.35857483 -80.98622098 425.52277794 -86.1875 421.4375 C-86.76741699 420.98246094 -87.34733398 420.52742188 -87.94482422 420.05859375 C-95.02664506 414.44783804 -95.02664506 414.44783804 -98.1875 411.4375 C-98.1875 410.7775 -98.1875 410.1175 -98.1875 409.4375 C-98.76371094 409.19386719 -99.33992188 408.95023437 -99.93359375 408.69921875 C-110.72144478 402.66026575 -125.3242059 382.02738231 -129.1875 370.4375 C-130.16562396 368.59240254 -131.16833007 366.76024622 -132.1875 364.9375 C-133.78271926 362.08451172 -135.15291783 359.54124651 -136.1875 356.4375 C-136.78759643 354.78107184 -137.39233869 353.1263242 -138 351.47265625 C-138.35320312 350.50779297 -138.70640625 349.54292969 -139.0703125 348.54882812 C-139.81384238 346.51971949 -140.55863005 344.49107129 -141.3046875 342.46289062 C-141.65789062 341.49673828 -142.01109375 340.53058594 -142.375 339.53515625 C-142.69855469 338.65351807 -143.02210938 337.77187988 -143.35546875 336.86352539 C-144.78604447 332.69227218 -145.54083788 328.53702764 -146.25 324.1875 C-146.42660156 323.10984375 -146.60320312 322.0321875 -146.78515625 320.921875 C-146.91792969 320.10203125 -147.05070312 319.2821875 -147.1875 318.4375 C-147.86554688 318.29054688 -148.54359375 318.14359375 -149.2421875 317.9921875 C-162.53146824 314.78950765 -172.68820966 307.60281482 -180.37109375 296.1953125 C-185.1875 288.11305332 -185.1875 288.11305332 -185.1875 285.4375 C-185.8475 285.1075 -186.5075 284.7775 -187.1875 284.4375 C-188.00390625 282.00390625 -188.00390625 282.00390625 -188.75 279 C-189.68935245 275.11495953 -189.68935245 275.11495953 -191.1875 271.4375 C-192.56851407 254.33387884 -192.03115348 236.57164143 -181.1875 222.4375 C-176.79367055 217.29197671 -172.32450331 213.32550156 -166.1875 210.4375 C-165.1975 210.4375 -164.2075 210.4375 -163.1875 210.4375 C-163.33372803 209.74301758 -163.47995605 209.04853516 -163.63061523 208.33300781 C-164.30283978 205.11934249 -164.96395702 201.90348319 -165.625 198.6875 C-165.85509766 197.59566406 -166.08519531 196.50382813 -166.32226562 195.37890625 C-168.3680208 185.35767077 -169.35823005 175.53496168 -169.1875 165.3125 C-168.92240679 160.70736274 -168.92240679 160.70736274 -170.1875 156.4375 C-169.5275 156.4375 -168.8675 156.4375 -168.1875 156.4375 C-168.20707764 155.7674292 -168.22665527 155.0973584 -168.24682617 154.40698242 C-168.35798617 147.65798268 -167.77042468 141.37158938 -166.5 134.75 C-166.31993408 133.79520752 -166.13986816 132.84041504 -165.9543457 131.85668945 C-160.68684568 105.02416582 -148.93919694 81.81783323 -132.45703125 60.1640625 C-131.12646375 58.45672087 -131.12646375 58.45672087 -130.1875 56.4375 C-129.218125 55.633125 -128.24875 54.82875 -127.25 54 C-124.09579594 51.6056241 -124.09579594 51.6056241 -122.1875 48.4375 C-121.5275 48.4375 -120.8675 48.4375 -120.1875 48.4375 C-120.1875 47.7775 -120.1875 47.1175 -120.1875 46.4375 C-119.5275 46.4375 -118.8675 46.4375 -118.1875 46.4375 C-118.1875 45.7775 -118.1875 45.1175 -118.1875 44.4375 C-114.71949622 41.20427404 -110.92589946 38.35035579 -107.1875 35.4375 C-106.33542969 34.77105469 -105.48335938 34.10460938 -104.60546875 33.41796875 C-87.84607481 20.77762708 -69.37836257 11.77494155 -49.1875 6.125 C-48.37128174 5.89458008 -47.55506348 5.66416016 -46.71411133 5.42675781 C-31.30326605 1.37041009 -15.89008041 -0.12100449 0 0 Z M20.8125 131.4375 C21.06418945 132.085979 21.31587891 132.73445801 21.57519531 133.40258789 C26.29127861 145.60885756 30.88525485 157.66406661 33.8125 170.4375 C-12.96622522 177.78588212 -61.04952469 161.56148578 -101.1875 138.4375 C-101.7310341 140.58286108 -102.2721166 142.72884314 -102.8125 144.875 C-102.99071289 145.57947266 -103.16892578 146.28394531 -103.35253906 147.00976562 C-104.45559966 151.40334372 -105.50661248 155.80469721 -106.5078125 160.22265625 C-114.23137938 193.99243407 -114.23137938 193.99243407 -120.31933594 205.59448242 C-121.42027484 207.93165558 -121.03780345 209.05665035 -120.1875 211.4375 C-118.24146726 212.02820014 -118.24146726 212.02820014 -116.1875 212.4375 C-115.6925 211.9425 -115.6925 211.9425 -115.1875 211.4375 C-115.1875 212.0975 -115.1875 212.7575 -115.1875 213.4375 C-113.5375 213.7675 -111.8875 214.0975 -110.1875 214.4375 C-109.6925 213.4475 -109.6925 213.4475 -109.1875 212.4375 C-98.92785524 197.45701642 -86.63405355 186.12148246 -68.3125 182.4375 C-51.80892271 179.58126591 -35.51850644 182.72277221 -21.6171875 192.1875 C-12.16348784 199.35727833 -6.00221065 207.84733332 -1.06396484 218.52368164 C0.6836741 222.20144976 0.6836741 222.20144976 3.98046875 224.35546875 C5.38232422 224.39607422 5.38232422 224.39607422 6.8125 224.4375 C7.48466553 224.47174072 8.15683105 224.50598145 8.84936523 224.54125977 C11.21388689 224.64415299 13.57087916 224.672305 15.9375 224.6875 C16.74832031 224.708125 17.55914062 224.72875 18.39453125 224.75 C19.56435547 224.75773437 19.56435547 224.75773437 20.7578125 224.765625 C21.46437988 224.7749707 22.17094727 224.78431641 22.89892578 224.79394531 C25.39671967 224.32867623 26.23159702 223.38710642 27.8125 221.4375 C28.7790511 219.58772116 29.69037846 217.70862942 30.5625 215.8125 C37.75976152 201.15337176 49.31076188 190.05349454 64.8125 184.4375 C81.25744484 179.3078079 98.11321833 180.77129167 113.4375 188.6875 C124.47534422 195.21805756 132.37635475 203.47327026 138.8125 214.4375 C143.12499991 206.93142485 140.56692905 196.82071692 139.5 188.625 C139.29914795 187.05093384 139.29914795 187.05093384 139.09423828 185.44506836 C138.28163274 173.1427544 138.28163274 173.1427544 133.8125 162.4375 C131.51807603 162.53035528 129.22621566 162.688495 126.9375 162.875 C92.42974208 165.35722236 65.13966699 152.86095706 35.00048828 137.54736328 C33.57664317 136.8251138 32.15063459 136.10710842 30.72216797 135.39404297 C29.03590127 134.54940056 27.36077211 133.6826015 25.6875 132.8125 C23.04293646 131.2936815 23.04293646 131.2936815 20.8125 131.4375 Z M-82.375 210.625 C-91.10695627 219.35695627 -96.2652552 229.68573357 -96.5625 242.1875 C-95.98989071 254.57017591 -91.60121209 265.16631844 -82.3828125 273.71875 C-72.89515224 281.14681141 -61.05931905 283.70599573 -49.1875 282.4375 C-38.16735662 280.15248339 -28.91912794 274.57429092 -22.1875 265.5 C-16.09101144 255.94688993 -14.02622959 245.92744633 -16.375 234.8125 C-19.51716371 222.87227792 -25.62968216 213.61426115 -36.3125 206.9375 C-51.96972548 198.38624608 -68.04290643 200.78924951 -82.375 210.625 Z M58.55859375 211.1875 C50.42561086 218.59515045 46.17858946 228.31476072 44.9375 239.1484375 C44.4720721 251.39500913 48.11879759 262.67925798 56.4375 271.8125 C65.93921528 280.59883517 76.39326468 282.84229631 88.8203125 282.65625 C93.65722663 282.39121361 97.47334212 281.53942055 101.8125 279.4375 C102.42222656 279.14746094 103.03195312 278.85742188 103.66015625 278.55859375 C113.62437222 273.32464294 120.50033808 265.38270172 124.078125 254.72265625 C126.87362004 242.21727684 125.14532528 231.06671454 118.390625 220.13671875 C111.54583199 210.36632872 102.18898003 204.2069167 90.4375 202 C78.1948777 200.51996468 68.25879008 203.65597841 58.55859375 211.1875 Z M-164.5625 237.8125 C-170.40357875 245.28401537 -170.62408425 254.16644416 -169.5625 263.25 C-167.62853431 274.99283741 -163.44950037 284.65034045 -154.1875 292.4375 C-148.6483112 295.68339407 -142.7281655 296.92731557 -136.4140625 297.75 C-133.37338393 298.68887619 -132.141172 299.93279231 -130.1875 302.4375 C-129.1328125 305.40625 -129.1328125 305.40625 -128.3125 308.9375 C-127.97788154 310.28971382 -127.64049479 311.6412447 -127.30078125 312.9921875 C-127.03322021 314.07258301 -127.03322021 314.07258301 -126.76025391 315.17480469 C-117.28259154 352.61682292 -98.67336734 389.03359815 -65.3046875 410.5859375 C-60.01976808 413.72510016 -54.6859142 416.6882929 -49.1875 419.4375 C-48.26195312 419.90027344 -47.33640625 420.36304688 -46.3828125 420.83984375 C-20.02518869 433.40746438 9.80641435 434.48916019 37.8125 427.4375 C38.49900635 427.27048584 39.1855127 427.10347168 39.89282227 426.93139648 C71.55245764 418.78597586 99.49945389 394.03753972 115.83984375 366.4128418 C124.62343812 351.24249709 130.48045112 335.57792385 134.125 318.4375 C134.33632568 317.4467749 134.54765137 316.4560498 134.76538086 315.43530273 C135.16274863 313.52198569 135.54208696 311.60480815 135.90063477 309.68383789 C137.02389673 304.18213631 138.15475823 300.97710935 142.8125 297.4375 C145.2421875 296.13671875 145.2421875 296.13671875 147.6875 295.125 C156.5272224 290.86932384 160.25877133 284.39152001 163.76953125 275.46484375 C166.02661073 268.91339582 167.15389643 263.32640884 167.125 256.4375 C167.14111328 255.66921875 167.15722656 254.9009375 167.17382812 254.109375 C167.1789926 248.03595615 165.89194669 243.66064237 162.5625 238.5 C159.76607128 236.80216828 157.01377935 237.32517441 153.8125 237.4375 C153.090625 237.23125 152.36875 237.025 151.625 236.8125 C149.14175463 236.2987251 147.98708477 237.25791157 145.8125 238.4375 C145.84730469 238.98535156 145.88210938 239.53320312 145.91796875 240.09765625 C146.45861262 255.93079821 141.5233981 271.43412059 131.625 283.875 C119.31027985 296.49689004 102.92691222 302.97556108 85.4375 303.75 C76.46904846 303.50540587 67.48392738 301.22184419 59.484375 297.20703125 C57.81644775 296.29812806 57.81644775 296.29812806 55.8125 296.4375 C55.60496094 297.11554688 55.39742187 297.79359375 55.18359375 298.4921875 C51.00391415 311.1186673 44.60254828 319.42614074 32.67578125 325.53125 C26.84759753 328.00450675 21.52706219 328.46186309 15.5 326.1875 C12.77375862 324.41227305 11.29538216 323.32088197 9.8125 320.4375 C9.21639874 315.76804016 9.97804352 313.16143027 12.8125 309.4375 C15.703125 308.13671875 15.703125 308.13671875 19.0625 307.125 C26.55844327 304.47593198 30.46500307 300.81238065 34.1875 293.875 C34.39375 293.070625 34.6 292.26625 34.8125 291.4375 C35.121875 290.426875 35.43125 289.41625 35.75 288.375 C35.84480933 282.40201214 33.24073598 277.80802748 30.8125 272.4375 C27.45052095 264.26097952 25.5295579 256.10864238 23.8125 247.4375 C17.5425 247.4375 11.2725 247.4375 4.8125 247.4375 C4.296875 249.95375 3.78125 252.47 3.25 255.0625 C-0.42933516 271.31263602 -8.37474061 284.66054494 -22.54296875 293.91015625 C-37.32153841 302.44548969 -53.95347206 305.48342707 -70.6328125 301.64453125 C-86.70496015 297.07646144 -99.67724394 287.73908796 -108.06640625 273.17578125 C-114.48409051 261.26979034 -116.61017617 249.89511766 -117.1875 236.4375 C-118.02152344 236.33953125 -118.85554688 236.2415625 -119.71484375 236.140625 C-130.02165185 234.7711064 -130.02165185 234.7711064 -134.625 232.3125 C-144.97895502 227.23103868 -156.89968799 229.54472915 -164.5625 237.8125 Z " fill="#020201" transform="translate(194.1875,9.5625)"/>
<path d="M0 0 C2.40294825 2.04250601 4.36768302 4.18047135 6.29296875 6.67578125 C14.39428901 16.91022225 26.13546551 20.73099141 38.73828125 22.53515625 C56.00293296 24.09489114 71.29048917 20.53071867 85.46484375 10.453125 C88.40340208 8.76877415 90.62742525 8.22122646 94 8 C97.40153266 9.05811035 100.17183034 11.03380206 102.5 13.75 C103.27840443 17.25281992 103.09797769 20.61141369 102 24 C99.14718167 28.33053718 95.59000601 30.90570673 91.1875 33.5 C90.20378418 34.08309937 90.20378418 34.08309937 89.20019531 34.67797852 C82.41780208 38.55189911 75.53864655 40.977229 68 43 C67.11441406 43.24492187 66.22882813 43.48984375 65.31640625 43.7421875 C44.98400669 48.37328007 22.17479072 44.57206463 4.46240234 33.79101562 C-3.81136079 28.5404851 -10.87391547 23.07738596 -15 14 C-15.65190095 10.00710666 -15.21470391 8.40555184 -13.3125 4.8125 C-9.29970831 -0.06792232 -6.25199593 -2.08399864 0 0 Z " fill="#070604" transform="translate(163,339)"/>
<path d="M0 0 C0.33 0.66 0.66 1.32 1 2 C1.5775 2.12375 2.155 2.2475 2.75 2.375 C6.98374919 3.55104144 9.40999544 6.1543268 11.875 9.6875 C13.37587053 14.10672988 13.17633381 17.51220595 12 22 C9.55829963 26.79296738 6.85940247 29.6602877 2 32 C-2.90565755 32.79463544 -7.40016362 32.66534636 -11.875 30.375 C-15.36131722 27.72539891 -17.15609286 25.98283943 -19 22 C-19.64872936 16.88407099 -19.77726088 11.49651761 -17 7 C-11.50830289 1.94185793 -7.250532 0.7250532 0 0 Z " fill="#060604" transform="translate(279,238)"/>
<path d="M0 0 C4.14812733 2.30362023 6.37627159 4.90579793 7.8125 9.4375 C8.7706083 14.51091156 8.22049036 18.33610049 5.625 22.8125 C2.82848434 26.77488698 0.07331924 28.72355708 -4.5625 30.1875 C-10.00558839 30.70588937 -13.75954892 30.11609902 -18 26.625 C-21.14434297 23.82603109 -22.94982018 21.30807101 -23.48828125 17.0703125 C-23.51291254 11.79921544 -23.35643157 7.8740042 -20.1875 3.4375 C-13.78170676 -1.50029896 -7.67037261 -3.34863282 0 0 Z " fill="#060604" transform="translate(150.1875,240.5625)"/>
<path d="M0 0 C0.66 0.33 1.32 0.66 2 1 C-0.78375705 3.85786389 -3.57723598 6.70581784 -6.38012695 9.54492188 C-7.33240279 10.51229259 -8.28196984 11.48233757 -9.22875977 12.45507812 C-10.58937548 13.85204345 -11.96056764 15.238683 -13.33203125 16.625 C-14.56530151 17.88183594 -14.56530151 17.88183594 -15.82348633 19.1640625 C-18 21 -18 21 -21 21 C-20 19 -20 19 -17.0625 16.5625 C-13.90829594 14.1681241 -13.90829594 14.1681241 -12 11 C-11.34 11 -10.68 11 -10 11 C-10 10.34 -10 9.68 -10 9 C-9.34 9 -8.68 9 -8 9 C-8 8.34 -8 7.68 -8 7 C-6.25 5.2734375 -6.25 5.2734375 -4 3.375 C-3.2575 2.74335937 -2.515 2.11171875 -1.75 1.4609375 C-0.88375 0.73777344 -0.88375 0.73777344 0 0 Z " fill="#201C0D" transform="translate(84,47)"/>
<path d="M0 0 C0.99386719 0.10183594 1.98773438 0.20367187 3.01171875 0.30859375 C3.77097656 0.39238281 4.53023438 0.47617188 5.3125 0.5625 C5.3125 0.8925 5.3125 1.2225 5.3125 1.5625 C1.61381555 2.31904909 -1.08638984 2.76287005 -4.6875 1.5625 C-5.43 1.376875 -6.1725 1.19125 -6.9375 1 C-7.515 0.855625 -8.0925 0.71125 -8.6875 0.5625 C-5.3763987 -0.54120043 -3.44001051 -0.36423641 0 0 Z " fill="#322D1F" transform="translate(348.6875,245.4375)"/>
<path d="M0 0 C1.32 0.33 2.64 0.66 4 1 C3.01 1.495 3.01 1.495 2 2 C1.34 1.34 0.68 0.68 0 0 Z " fill="#4D3F18" transform="translate(152,456)"/>
<path d="M0 0 C0.66 0 1.32 0 2 0 C1.67 0.99 1.34 1.98 1 3 C0.67 2.01 0.34 1.02 0 0 Z " fill="#362F1F" transform="translate(327,315)"/>
<path d="M0 0 C1 4 1 4 1 4 Z " fill="#312B1F" transform="translate(359,268)"/>
<path d="M0 0 C0.99 0 1.98 0 3 0 C2.67 0.66 2.34 1.32 2 2 C1.34 1.34 0.68 0.68 0 0 Z " fill="#322D22" transform="translate(167,229)"/>
<path d="M0 0 C1 4 1 4 1 4 Z " fill="#433916" transform="translate(24,157)"/>
<path d="M0 0 C0.66 0.33 1.32 0.66 2 1 C1.01 1 0.02 1 -1 1 C-0.67 0.67 -0.34 0.34 0 0 Z " fill="#403512" transform="translate(127,19)"/>
<path d="M0 0 C0.66 0.66 1.32 1.32 2 2 C1.34 2 0.68 2 0 2 C0 1.34 0 0.68 0 0 Z " fill="#4E4118" transform="translate(128,445)"/>
<path d="M0 0 C3 1 3 1 3 1 Z " fill="#453E23" transform="translate(201,385)"/>
<path d="M0 0 C0.66 0.66 1.32 1.32 2 2 C1.34 2 0.68 2 0 2 C0 1.34 0 0.68 0 0 Z " fill="#4B3E17" transform="translate(66,384)"/>
<path d="M0 0 C3 1 3 1 3 1 Z " fill="#3C3422" transform="translate(119,312)"/>
<path d="M0 0 C0.66 0 1.32 0 2 0 C1.67 0.66 1.34 1.32 1 2 C0.67 1.34 0.34 0.68 0 0 Z " fill="#332F23" transform="translate(167,275)"/>
<path d="M0 0 C3 1 3 1 3 1 Z " fill="#312B20" transform="translate(351,248)"/>
<path d="" fill="#342F24" transform="translate(0,0)"/>
<path d="M0 0 C0.33 0.66 0.66 1.32 1 2 C0.34 1.67 -0.32 1.34 -1 1 C-0.67 0.67 -0.34 0.34 0 0 Z " fill="#332E22" transform="translate(172,233)"/>
<path d="M0 0 C3 1 3 1 3 1 Z " fill="#27251B" transform="translate(192,183)"/>
<path d="" fill="#29251B" transform="translate(0,0)"/>
<path d="M0 0 C3 1 3 1 3 1 Z " fill="#28251C" transform="translate(221,182)"/>
<path d="M0 0 C0.66 0 1.32 0 2 0 C1.67 0.66 1.34 1.32 1 2 C0.67 1.34 0.34 0.68 0 0 Z " fill="#25221B" transform="translate(154,177)"/>
<path d="" fill="#423815" transform="translate(0,0)"/>
<path d="M0 0 C0.66 0 1.32 0 2 0 C1.67 0.66 1.34 1.32 1 2 C0.67 1.34 0.34 0.68 0 0 Z " fill="#413714" transform="translate(237,12)"/>
<path d="M0 0 C3 1 3 1 3 1 Z " fill="#423714" transform="translate(231,11)"/>
<path d="M0 0 C2 1 2 1 2 1 Z " fill="#504219" transform="translate(177,462)"/>
<path d="M0 0 C2 1 2 1 2 1 Z " fill="#473E1E" transform="translate(170,436)"/>
<path d="M0 0 C2 1 2 1 2 1 Z " fill="#40351A" transform="translate(165,435)"/>
<path d="M0 0 C2 1 2 1 2 1 Z " fill="#3C361F" transform="translate(283,403)"/>
<path d="" fill="#3B3520" transform="translate(0,0)"/>
<path d="M0 0 C2 1 2 1 2 1 Z " fill="#443C21" transform="translate(210,385)"/>
<path d="M0 0 C2 1 2 1 2 1 Z " fill="#453C21" transform="translate(223,384)"/>
<path d="M0 0 C2 1 2 1 2 1 Z " fill="#433D1F" transform="translate(167,374)"/>
<path d="M0 0 C2 1 2 1 2 1 Z " fill="#3C3523" transform="translate(187,355)"/>
<path d="M0 0 C2 1 2 1 2 1 Z " fill="#39331F" transform="translate(260,347)"/>
<path d="" fill="#343122" transform="translate(0,0)"/>
<path d="M0 0 C2 1 2 1 2 1 Z " fill="#383120" transform="translate(147,314)"/>
<path d="M0 0 C2 1 2 1 2 1 Z " fill="#3A3320" transform="translate(131,314)"/>
<path d="M0 0 C2 1 2 1 2 1 Z " fill="#353020" transform="translate(266,313)"/>
<path d="" fill="#312A1D" transform="translate(0,0)"/>
<path d="" fill="#413A23" transform="translate(0,0)"/>
<path d="" fill="#37311E" transform="translate(0,0)"/>
<path d="" fill="#333123" transform="translate(0,0)"/>
<path d="" fill="#4F441B" transform="translate(0,0)"/>
<path d="M0 0 C2 1 2 1 2 1 Z " fill="#342D19" transform="translate(74,247)"/>
<path d="M0 0 C2 1 2 1 2 1 Z " fill="#353226" transform="translate(136,238)"/>
<path d="" fill="#3E3619" transform="translate(0,0)"/>
<path d="M0 0 C2 1 2 1 2 1 Z " fill="#2E291C" transform="translate(74,219)"/>
<path d="M0 0 C2 1 2 1 2 1 Z " fill="#332F23" transform="translate(153,216)"/>
<path d="M0 0 C2 1 2 1 2 1 Z " fill="#29271B" transform="translate(165,195)"/>
<path d="" fill="#2B271C" transform="translate(0,0)"/>
<path d="M0 0 C2 1 2 1 2 1 Z " fill="#26221B" transform="translate(185,182)"/>
<path d="M0 0 C2 1 2 1 2 1 Z " fill="#24221A" transform="translate(226,181)"/>
<path d="" fill="#28261A" transform="translate(0,0)"/>
<path d="" fill="#433916" transform="translate(0,0)"/>
<path d="M0 0 C2 1 2 1 2 1 Z " fill="#373116" transform="translate(352,86)"/>
<path d="M0 0 C2 1 2 1 2 1 Z " fill="#3E3415" transform="translate(105,28)"/>
<path d="M0 0 C2 1 2 1 2 1 Z " fill="#403516" transform="translate(111,27)"/>
<path d="M0 0 C2 1 2 1 2 1 Z " fill="#433816" transform="translate(123,19)"/>
<path d="" fill="#4B4018" transform="translate(0,0)"/>
<path d="" fill="#50421B" transform="translate(0,0)"/>
<path d="" fill="#4F421B" transform="translate(0,0)"/>
<path d="" fill="#4E4019" transform="translate(0,0)"/>
<path d="" fill="#4D4218" transform="translate(0,0)"/>
<path d="" fill="#4D3F1A" transform="translate(0,0)"/>
<path d="" fill="#4F4417" transform="translate(0,0)"/>
<path d="" fill="#504319" transform="translate(0,0)"/>
<path d="" fill="#4D3F1A" transform="translate(0,0)"/>
<path d="" fill="#52441C" transform="translate(0,0)"/>
<path d="" fill="#463D1E" transform="translate(0,0)"/>
<path d="" fill="#433B1C" transform="translate(0,0)"/>
<path d="" fill="#463C1D" transform="translate(0,0)"/>
<path d="" fill="#483C20" transform="translate(0,0)"/>
<path d="" fill="#443B1C" transform="translate(0,0)"/>
<path d="" fill="#463C20" transform="translate(0,0)"/>
<path d="" fill="#463B1E" transform="translate(0,0)"/>
<path d="" fill="#4D4018" transform="translate(0,0)"/>
<path d="" fill="#423A1E" transform="translate(0,0)"/>
<path d="" fill="#4A3E1E" transform="translate(0,0)"/>
<path d="" fill="#4F4219" transform="translate(0,0)"/>
<path d="" fill="#493E1E" transform="translate(0,0)"/>
<path d="" fill="#40371E" transform="translate(0,0)"/>
<path d="" fill="#4F4218" transform="translate(0,0)"/>
<path d="" fill="#3D371C" transform="translate(0,0)"/>
<path d="" fill="#453C1D" transform="translate(0,0)"/>
<path d="" fill="#4E4219" transform="translate(0,0)"/>
<path d="" fill="#3B331E" transform="translate(0,0)"/>
<path d="" fill="#3E3720" transform="translate(0,0)"/>
<path d="" fill="#3D351E" transform="translate(0,0)"/>
<path d="" fill="#3E371F" transform="translate(0,0)"/>
<path d="" fill="#3F381D" transform="translate(0,0)"/>
<path d="" fill="#4F4117" transform="translate(0,0)"/>
<path d="" fill="#3D361D" transform="translate(0,0)"/>
<path d="" fill="#4C4016" transform="translate(0,0)"/>
<path d="" fill="#4F4016" transform="translate(0,0)"/>
<path d="" fill="#483F1E" transform="translate(0,0)"/>
<path d="" fill="#3E3720" transform="translate(0,0)"/>
<path d="" fill="#3F3821" transform="translate(0,0)"/>
<path d="" fill="#3D3720" transform="translate(0,0)"/>
<path d="" fill="#4F4317" transform="translate(0,0)"/>
<path d="" fill="#3B351F" transform="translate(0,0)"/>
<path d="" fill="#413B1D" transform="translate(0,0)"/>
<path d="" fill="#453C1E" transform="translate(0,0)"/>
<path d="" fill="#3B351D" transform="translate(0,0)"/>
<path d="" fill="#433C22" transform="translate(0,0)"/>
<path d="" fill="#463E25" transform="translate(0,0)"/>
<path d="" fill="#463F25" transform="translate(0,0)"/>
<path d="" fill="#453C20" transform="translate(0,0)"/>
<path d="" fill="#453A1F" transform="translate(0,0)"/>
<path d="" fill="#473B22" transform="translate(0,0)"/>
<path d="" fill="#3F381F" transform="translate(0,0)"/>
<path d="" fill="#41391E" transform="translate(0,0)"/>
<path d="" fill="#473C1E" transform="translate(0,0)"/>
<path d="" fill="#483B18" transform="translate(0,0)"/>
<path d="" fill="#453B15" transform="translate(0,0)"/>
<path d="" fill="#393320" transform="translate(0,0)"/>
<path d="" fill="#453A15" transform="translate(0,0)"/>
<path d="" fill="#3B331E" transform="translate(0,0)"/>
<path d="" fill="#403925" transform="translate(0,0)"/>
<path d="" fill="#3E3824" transform="translate(0,0)"/>
<path d="" fill="#363222" transform="translate(0,0)"/>
<path d="" fill="#3E3625" transform="translate(0,0)"/>
<path d="" fill="#363221" transform="translate(0,0)"/>
<path d="" fill="#423A1E" transform="translate(0,0)"/>
<path d="" fill="#413B28" transform="translate(0,0)"/>
<path d="" fill="#3F3A21" transform="translate(0,0)"/>
<path d="" fill="#3A321F" transform="translate(0,0)"/>
<path d="" fill="#3A331E" transform="translate(0,0)"/>
<path d="" fill="#393220" transform="translate(0,0)"/>
<path d="" fill="#3D361F" transform="translate(0,0)"/>
<path d="" fill="#423921" transform="translate(0,0)"/>
<path d="" fill="#453B1A" transform="translate(0,0)"/>
<path d="" fill="#3B351F" transform="translate(0,0)"/>
<path d="" fill="#423816" transform="translate(0,0)"/>
<path d="" fill="#352F1F" transform="translate(0,0)"/>
<path d="" fill="#3C341F" transform="translate(0,0)"/>
<path d="" fill="#3A3423" transform="translate(0,0)"/>
<path d="" fill="#353322" transform="translate(0,0)"/>
<path d="" fill="#3E371E" transform="translate(0,0)"/>
<path d="" fill="#4A3D19" transform="translate(0,0)"/>
<path d="" fill="#4C4019" transform="translate(0,0)"/>
<path d="" fill="#343123" transform="translate(0,0)"/>
<path d="" fill="#352F1F" transform="translate(0,0)"/>
<path d="" fill="#353121" transform="translate(0,0)"/>
<path d="" fill="#332E20" transform="translate(0,0)"/>
<path d="" fill="#322D1F" transform="translate(0,0)"/>
<path d="" fill="#3B3321" transform="translate(0,0)"/>
<path d="" fill="#363020" transform="translate(0,0)"/>
<path d="" fill="#342E1F" transform="translate(0,0)"/>
<path d="" fill="#362F1F" transform="translate(0,0)"/>
<path d="" fill="#322D1D" transform="translate(0,0)"/>
<path d="" fill="#2F2B1F" transform="translate(0,0)"/>
<path d="" fill="#3B331F" transform="translate(0,0)"/>
<path d="" fill="#39351F" transform="translate(0,0)"/>
<path d="" fill="#383220" transform="translate(0,0)"/>
<path d="" fill="#302D1F" transform="translate(0,0)"/>
<path d="" fill="#393420" transform="translate(0,0)"/>
<path d="" fill="#37301F" transform="translate(0,0)"/>
<path d="" fill="#342E20" transform="translate(0,0)"/>
<path d="" fill="#373120" transform="translate(0,0)"/>
<path d="" fill="#363121" transform="translate(0,0)"/>
<path d="" fill="#52431C" transform="translate(0,0)"/>
<path d="" fill="#322E21" transform="translate(0,0)"/>
<path d="" fill="#3C3622" transform="translate(0,0)"/>
<path d="" fill="#51451C" transform="translate(0,0)"/>
<path d="" fill="#3C361F" transform="translate(0,0)"/>
<path d="" fill="#352F21" transform="translate(0,0)"/>
<path d="" fill="#38311D" transform="translate(0,0)"/>
<path d="" fill="#38331E" transform="translate(0,0)"/>
<path d="" fill="#423922" transform="translate(0,0)"/>
<path d="" fill="#3C331D" transform="translate(0,0)"/>
<path d="" fill="#342E1E" transform="translate(0,0)"/>
<path d="" fill="#302A1B" transform="translate(0,0)"/>
<path d="" fill="#37311F" transform="translate(0,0)"/>
<path d="" fill="#37301F" transform="translate(0,0)"/>
<path d="" fill="#2D2922" transform="translate(0,0)"/>
<path d="" fill="#312B23" transform="translate(0,0)"/>
<path d="" fill="#373120" transform="translate(0,0)"/>
<path d="" fill="#332C21" transform="translate(0,0)"/>
<path d="" fill="#38321F" transform="translate(0,0)"/>
<path d="" fill="#342F1E" transform="translate(0,0)"/>
<path d="" fill="#352F21" transform="translate(0,0)"/>
<path d="" fill="#322C22" transform="translate(0,0)"/>
<path d="" fill="#322E20" transform="translate(0,0)"/>
<path d="" fill="#322D22" transform="translate(0,0)"/>
<path d="" fill="#2F2B20" transform="translate(0,0)"/>
<path d="" fill="#352E22" transform="translate(0,0)"/>
<path d="" fill="#363223" transform="translate(0,0)"/>
<path d="" fill="#332D21" transform="translate(0,0)"/>
<path d="" fill="#312D23" transform="translate(0,0)"/>
<path d="" fill="#322B22" transform="translate(0,0)"/>
<path d="" fill="#2F271C" transform="translate(0,0)"/>
<path d="" fill="#332E1D" transform="translate(0,0)"/>
<path d="" fill="#333221" transform="translate(0,0)"/>
<path d="" fill="#2F2A1A" transform="translate(0,0)"/>
<path d="" fill="#322C20" transform="translate(0,0)"/>
<path d="" fill="#2E2B1E" transform="translate(0,0)"/>
<path d="" fill="#302A1E" transform="translate(0,0)"/>
<path d="" fill="#302C1E" transform="translate(0,0)"/>
<path d="" fill="#35311E" transform="translate(0,0)"/>
<path d="" fill="#35301F" transform="translate(0,0)"/>
<path d="" fill="#332D23" transform="translate(0,0)"/>
<path d="" fill="#322F22" transform="translate(0,0)"/>
<path d="" fill="#4E4318" transform="translate(0,0)"/>
<path d="" fill="#322C1F" transform="translate(0,0)"/>
<path d="" fill="#373020" transform="translate(0,0)"/>
<path d="" fill="#332E22" transform="translate(0,0)"/>
<path d="" fill="#312E21" transform="translate(0,0)"/>
<path d="" fill="#4E431B" transform="translate(0,0)"/>
<path d="" fill="#322B20" transform="translate(0,0)"/>
<path d="" fill="#332E24" transform="translate(0,0)"/>
<path d="" fill="#332D21" transform="translate(0,0)"/>
<path d="" fill="#342D21" transform="translate(0,0)"/>
<path d="" fill="#342D22" transform="translate(0,0)"/>
<path d="" fill="#312B20" transform="translate(0,0)"/>
<path d="" fill="#312C1E" transform="translate(0,0)"/>
<path d="" fill="#322D1F" transform="translate(0,0)"/>
<path d="" fill="#2F2B1D" transform="translate(0,0)"/>
<path d="" fill="#2F2B1D" transform="translate(0,0)"/>
<path d="" fill="#39331B" transform="translate(0,0)"/>
<path d="" fill="#2C291C" transform="translate(0,0)"/>
<path d="" fill="#332E21" transform="translate(0,0)"/>
<path d="" fill="#342E22" transform="translate(0,0)"/>
<path d="" fill="#333023" transform="translate(0,0)"/>
<path d="" fill="#332F23" transform="translate(0,0)"/>
<path d="" fill="#2E2B17" transform="translate(0,0)"/>
<path d="" fill="#363224" transform="translate(0,0)"/>
<path d="" fill="#2D2A1D" transform="translate(0,0)"/>
<path d="" fill="#302B1E" transform="translate(0,0)"/>
<path d="" fill="#302E1B" transform="translate(0,0)"/>
<path d="" fill="#302A1B" transform="translate(0,0)"/>
<path d="" fill="#342F1D" transform="translate(0,0)"/>
<path d="" fill="#312E20" transform="translate(0,0)"/>
<path d="" fill="#2E291E" transform="translate(0,0)"/>
<path d="" fill="#322E24" transform="translate(0,0)"/>
<path d="" fill="#353124" transform="translate(0,0)"/>
<path d="" fill="#342E23" transform="translate(0,0)"/>
<path d="" fill="#333025" transform="translate(0,0)"/>
<path d="" fill="#302E23" transform="translate(0,0)"/>
<path d="" fill="#312F22" transform="translate(0,0)"/>
<path d="" fill="#2F2C22" transform="translate(0,0)"/>
<path d="" fill="#322F24" transform="translate(0,0)"/>
<path d="" fill="#333023" transform="translate(0,0)"/>
<path d="" fill="#322F24" transform="translate(0,0)"/>
<path d="" fill="#373024" transform="translate(0,0)"/>
<path d="" fill="#333023" transform="translate(0,0)"/>
<path d="" fill="#322E21" transform="translate(0,0)"/>
<path d="" fill="#352F23" transform="translate(0,0)"/>
<path d="" fill="#2B271D" transform="translate(0,0)"/>
<path d="" fill="#2E2C1F" transform="translate(0,0)"/>
<path d="" fill="#2E2B1F" transform="translate(0,0)"/>
<path d="" fill="#2F291C" transform="translate(0,0)"/>
<path d="" fill="#2D291B" transform="translate(0,0)"/>
<path d="" fill="#2E2A1F" transform="translate(0,0)"/>
<path d="" fill="#2A261C" transform="translate(0,0)"/>
<path d="" fill="#2C281B" transform="translate(0,0)"/>
<path d="" fill="#2A271B" transform="translate(0,0)"/>
<path d="" fill="#282719" transform="translate(0,0)"/>
<path d="" fill="#29251A" transform="translate(0,0)"/>
<path d="" fill="#3E3414" transform="translate(0,0)"/>
<path d="" fill="#2B251D" transform="translate(0,0)"/>
<path d="" fill="#2B281C" transform="translate(0,0)"/>
<path d="" fill="#3D3014" transform="translate(0,0)"/>
<path d="" fill="#2B291D" transform="translate(0,0)"/>
<path d="" fill="#2C281C" transform="translate(0,0)"/>
<path d="" fill="#413715" transform="translate(0,0)"/>
<path d="" fill="#2E291B" transform="translate(0,0)"/>
<path d="" fill="#2B261C" transform="translate(0,0)"/>
<path d="" fill="#2B281D" transform="translate(0,0)"/>
<path d="" fill="#2E2A20" transform="translate(0,0)"/>
<path d="" fill="#2A261B" transform="translate(0,0)"/>
<path d="" fill="#2E2B1E" transform="translate(0,0)"/>
<path d="" fill="#413815" transform="translate(0,0)"/>
<path d="" fill="#2B281E" transform="translate(0,0)"/>
<path d="" fill="#29271C" transform="translate(0,0)"/>
<path d="" fill="#2D2920" transform="translate(0,0)"/>
<path d="" fill="#2A291B" transform="translate(0,0)"/>
<path d="" fill="#2F2D1F" transform="translate(0,0)"/>
<path d="" fill="#2B271E" transform="translate(0,0)"/>
<path d="" fill="#3C3313" transform="translate(0,0)"/>
<path d="" fill="#29261D" transform="translate(0,0)"/>
<path d="" fill="#27241C" transform="translate(0,0)"/>
<path d="" fill="#28261B" transform="translate(0,0)"/>
<path d="" fill="#423914" transform="translate(0,0)"/>
<path d="" fill="#27231C" transform="translate(0,0)"/>
<path d="" fill="#26251A" transform="translate(0,0)"/>
<path d="" fill="#26241C" transform="translate(0,0)"/>
<path d="" fill="#232219" transform="translate(0,0)"/>
<path d="" fill="#433A16" transform="translate(0,0)"/>
<path d="" fill="#24201A" transform="translate(0,0)"/>
<path d="" fill="#23211A" transform="translate(0,0)"/>
<path d="" fill="#433816" transform="translate(0,0)"/>
<path d="" fill="#413714" transform="translate(0,0)"/>
<path d="" fill="#232119" transform="translate(0,0)"/>
<path d="" fill="#433814" transform="translate(0,0)"/>
<path d="" fill="#312E1A" transform="translate(0,0)"/>
<path d="" fill="#24221B" transform="translate(0,0)"/>
<path d="" fill="#222119" transform="translate(0,0)"/>
<path d="" fill="#463B17" transform="translate(0,0)"/>
<path d="" fill="#2D2718" transform="translate(0,0)"/>
<path d="" fill="#211E17" transform="translate(0,0)"/>
<path d="" fill="#25241A" transform="translate(0,0)"/>
<path d="" fill="#2D2718" transform="translate(0,0)"/>
<path d="" fill="#2E2A18" transform="translate(0,0)"/>
<path d="" fill="#443A16" transform="translate(0,0)"/>
<path d="" fill="#463B15" transform="translate(0,0)"/>
<path d="" fill="#443A13" transform="translate(0,0)"/>
<path d="" fill="#382E15" transform="translate(0,0)"/>
<path d="" fill="#443B16" transform="translate(0,0)"/>
<path d="" fill="#373216" transform="translate(0,0)"/>
<path d="" fill="#362F19" transform="translate(0,0)"/>
<path d="" fill="#463915" transform="translate(0,0)"/>
<path d="" fill="#3B3214" transform="translate(0,0)"/>
<path d="" fill="#3B3113" transform="translate(0,0)"/>
<path d="" fill="#3C3311" transform="translate(0,0)"/>
<path d="" fill="#3F3415" transform="translate(0,0)"/>
<path d="" fill="#3F3513" transform="translate(0,0)"/>
<path d="" fill="#3D351B" transform="translate(0,0)"/>
<path d="" fill="#3D3516" transform="translate(0,0)"/>
<path d="" fill="#3B3211" transform="translate(0,0)"/>
<path d="" fill="#3E3513" transform="translate(0,0)"/>
<path d="" fill="#3F3515" transform="translate(0,0)"/>
<path d="" fill="#3E3513" transform="translate(0,0)"/>
<path d="" fill="#433616" transform="translate(0,0)"/>
<path d="" fill="#403717" transform="translate(0,0)"/>
<path d="" fill="#403615" transform="translate(0,0)"/>
<path d="" fill="#433916" transform="translate(0,0)"/>
<path d="" fill="#403616" transform="translate(0,0)"/>
<path d="" fill="#433918" transform="translate(0,0)"/>
<path d="" fill="#403715" transform="translate(0,0)"/>
<path d="" fill="#423715" transform="translate(0,0)"/>
<path d="" fill="#413714" transform="translate(0,0)"/>
<path d="" fill="#3F3712" transform="translate(0,0)"/>
<path d="" fill="#403613" transform="translate(0,0)"/>
<path d="" fill="#463A14" transform="translate(0,0)"/>
</svg>
