<?xml version="1.0" encoding="UTF-8"?>
<svg version="1.1" xmlns="http://www.w3.org/2000/svg" width="1024" height="1024">
<path d="M0 0 C0.84290588 0.00270905 1.68581177 0.00541809 2.55426025 0.00820923 C16.60304435 0.07632676 30.11618615 1.11378834 43.8125 4.4375 C44.96468018 4.71037842 44.96468018 4.71037842 46.14013672 4.98876953 C67.20048189 10.14668729 87.55276864 19.96193418 105.28125 32.37890625 C106.84155099 33.51067734 106.84155099 33.51067734 108.8125 34.4375 C109.92839757 35.55339757 111.04164575 36.6720216 112.14453125 37.80078125 C114.19966113 39.81740752 116.34594499 41.71441746 118.5 43.625 C130.24855605 54.21084814 140.92639722 65.61677072 148.8125 79.4375 C156.01081637 79.19755612 160.82996419 77.20557545 167.11328125 73.71484375 C169.8125 72.4375 169.8125 72.4375 173.8125 72.4375 C174.1425 71.7775 174.4725 71.1175 174.8125 70.4375 C174.8125 71.0975 174.8125 71.7575 174.8125 72.4375 C175.410625 72.623125 176.00875 72.80875 176.625 73 C180.55507335 75.58261963 181.4466535 79.90759647 182.5 84.3125 C184.00785836 99.39108363 180.19563968 113.8110826 171.8125 126.4375 C169.86635719 128.78046043 167.77974271 130.97538574 165.6875 133.1875 C162.03951101 137.13139786 162.03951101 137.13139786 160.453125 142.171875 C161.00962068 145.34928582 161.90845918 148.34038677 162.8125 151.4375 C163.43580636 154.69414934 163.91138237 157.96722478 164.375 161.25 C164.56920532 162.58961792 164.56920532 162.58961792 164.76733398 163.95629883 C165.69102651 170.67067361 166.20915201 177.35514514 166.5 184.125 C166.5427002 185.08116211 166.58540039 186.03732422 166.62939453 187.02246094 C166.79751292 191.60310062 166.81749866 196.10474009 166.515625 200.6796875 C166.25022655 205.07094408 166.07636228 209.08281515 166.8125 213.4375 C169.0886915 215.84414516 171.07593785 216.81328073 174.12109375 218.078125 C178.81709594 220.44998097 181.35018066 224.90422334 183.8125 229.4375 C183.8125 230.0975 183.8125 230.7575 183.8125 231.4375 C184.4725 231.7675 185.1325 232.0975 185.8125 232.4375 C192.83101148 249.96698801 190.49757212 269.69111677 183.44140625 286.77734375 C178.43964602 298.27106415 170.58374948 310.07410096 158.8125 315.4375 C158.1525 315.4375 157.4925 315.4375 156.8125 315.4375 C156.65394531 316.32308594 156.49539063 317.20867187 156.33203125 318.12109375 C153.18220224 334.84477151 148.23148387 350.10896539 140.8125 365.4375 C140.46703125 366.15969727 140.1215625 366.88189453 139.765625 367.62597656 C122.75854358 402.76654125 91.59021523 432.11025761 54.58911133 445.18359375 C51.02244482 446.3647054 47.4320518 447.43141786 43.8125 448.4375 C42.71035156 448.75203125 41.60820312 449.0665625 40.47265625 449.390625 C3.09440522 459.00621543 -36.85129274 451.73818859 -69.98632812 432.75195312 C-75.66885017 429.35857483 -80.98622098 425.52277794 -86.1875 421.4375 C-86.76741699 420.98246094 -87.34733398 420.52742188 -87.94482422 420.05859375 C-95.02664506 414.44783804 -95.02664506 414.44783804 -98.1875 411.4375 C-98.1875 410.7775 -98.1875 410.1175 -98.1875 409.4375 C-98.76371094 409.19386719 -99.33992188 408.95023438 -99.93359375 408.69921875 C-110.72144478 402.66026575 -125.3242059 382.02738231 -129.1875 370.4375 C-130.16562396 368.59240254 -131.16833007 366.76024622 -132.1875 364.9375 C-133.78271926 362.08451172 -135.15291783 359.54124651 -136.1875 356.4375 C-136.78759643 354.78107184 -137.39233869 353.1263242 -138 351.47265625 C-138.35320312 350.50779297 -138.70640625 349.54292969 -139.0703125 348.54882812 C-139.81384238 346.51971949 -140.55863005 344.49107129 -141.3046875 342.46289062 C-141.65789062 341.49673828 -142.01109375 340.53058594 -142.375 339.53515625 C-142.69855469 338.65351807 -143.02210938 337.77187988 -143.35546875 336.86352539 C-144.78604447 332.69227218 -145.54083788 328.53702764 -146.25 324.1875 C-146.42660156 323.10984375 -146.60320312 322.0321875 -146.78515625 320.921875 C-146.91792969 320.10203125 -147.05070312 319.2821875 -147.1875 318.4375 C-147.86554688 318.29054688 -148.54359375 318.14359375 -149.2421875 317.9921875 C-162.53146824 314.78950765 -172.68820966 307.60281482 -180.37109375 296.1953125 C-185.1875 288.11305332 -185.1875 288.11305332 -185.1875 285.4375 C-185.8475 285.1075 -186.5075 284.7775 -187.1875 284.4375 C-188.00390625 282.00390625 -188.00390625 282.00390625 -188.75 279 C-189.68935245 275.11495953 -189.68935245 275.11495953 -191.1875 271.4375 C-192.56851407 254.33387884 -192.03115348 236.57164143 -181.1875 222.4375 C-176.79367055 217.29197671 -172.32450331 213.32550156 -166.1875 210.4375 C-165.1975 210.4375 -164.2075 210.4375 -163.1875 210.4375 C-163.33372803 209.74301758 -163.47995605 209.04853516 -163.63061523 208.33300781 C-164.30283978 205.11934249 -164.96395702 201.90348319 -165.625 198.6875 C-165.85509766 197.59566406 -166.08519531 196.50382813 -166.32226562 195.37890625 C-168.3680208 185.35767077 -169.35823005 175.53496168 -169.1875 165.3125 C-168.92240679 160.70736274 -168.92240679 160.70736274 -170.1875 156.4375 C-169.5275 156.4375 -168.8675 156.4375 -168.1875 156.4375 C-168.20707764 155.7674292 -168.22665527 155.0973584 -168.24682617 154.40698242 C-168.35798617 147.65798268 -167.77042468 141.37158938 -166.5 134.75 C-166.31993408 133.79520752 -166.13986816 132.84041504 -165.9543457 131.85668945 C-160.68684568 105.02416582 -148.93919694 81.81783323 -132.45703125 60.1640625 C-131.12646375 58.45672087 -131.12646375 58.45672087 -130.1875 56.4375 C-129.218125 55.633125 -128.24875 54.82875 -127.25 54 C-124.09579594 51.6056241 -124.09579594 51.6056241 -122.1875 48.4375 C-121.5275 48.4375 -120.8675 48.4375 -120.1875 48.4375 C-120.1875 47.7775 -120.1875 47.1175 -120.1875 46.4375 C-119.5275 46.4375 -118.8675 46.4375 -118.1875 46.4375 C-118.1875 45.7775 -118.1875 45.1175 -118.1875 44.4375 C-114.71949622 41.20427404 -110.92589946 38.35035579 -107.1875 35.4375 C-106.33542969 34.77105469 -105.48335938 34.10460937 -104.60546875 33.41796875 C-87.84607481 20.77762708 -69.37836257 11.77494155 -49.1875 6.125 C-48.37128174 5.89458008 -47.55506348 5.66416016 -46.71411133 5.42675781 C-31.30326605 1.37041009 -15.89008041 -0.12100449 0 0 Z M20.8125 131.4375 C21.06418945 132.085979 21.31587891 132.73445801 21.57519531 133.40258789 C26.29127861 145.60885756 30.88525485 157.66406661 33.8125 170.4375 C-12.96622522 177.78588212 -61.04952469 161.56148578 -101.1875 138.4375 C-101.7310341 140.58286108 -102.2721166 142.72884314 -102.8125 144.875 C-102.99071289 145.57947266 -103.16892578 146.28394531 -103.35253906 147.00976562 C-104.45559966 151.40334372 -105.50661248 155.80469721 -106.5078125 160.22265625 C-114.23137938 193.99243407 -114.23137938 193.99243407 -120.31933594 205.59448242 C-121.42027484 207.93165558 -121.03780345 209.05665035 -120.1875 211.4375 C-118.24146726 212.02820014 -118.24146726 212.02820014 -116.1875 212.4375 C-115.6925 211.9425 -115.6925 211.9425 -115.1875 211.4375 C-115.1875 212.0975 -115.1875 212.7575 -115.1875 213.4375 C-113.5375 213.7675 -111.8875 214.0975 -110.1875 214.4375 C-109.6925 213.4475 -109.6925 213.4475 -109.1875 212.4375 C-98.92785524 197.45701642 -86.63405355 186.12148246 -68.3125 182.4375 C-51.80892271 179.58126591 -35.51850644 182.72277221 -21.6171875 192.1875 C-12.16348784 199.35727833 -6.00221065 207.84733332 -1.06396484 218.52368164 C0.6836741 222.20144976 0.6836741 222.20144976 3.98046875 224.35546875 C5.38232422 224.39607422 5.38232422 224.39607422 6.8125 224.4375 C7.48466553 224.47174072 8.15683105 224.50598145 8.84936523 224.54125977 C11.21388689 224.64415299 13.57087916 224.672305 15.9375 224.6875 C16.74832031 224.708125 17.55914062 224.72875 18.39453125 224.75 C19.56435547 224.75773437 19.56435547 224.75773437 20.7578125 224.765625 C21.46437988 224.7749707 22.17094727 224.78431641 22.89892578 224.79394531 C25.39671967 224.32867623 26.23159702 223.38710642 27.8125 221.4375 C28.7790511 219.58772116 29.69037846 217.70862942 30.5625 215.8125 C37.75976152 201.15337176 49.31076188 190.05349454 64.8125 184.4375 C81.25744484 179.3078079 98.11321833 180.77129167 113.4375 188.6875 C124.47534422 195.21805756 132.37635475 203.47327026 138.8125 214.4375 C143.12499991 206.93142485 140.56692905 196.82071692 139.5 188.625 C139.29914795 187.05093384 139.29914795 187.05093384 139.09423828 185.44506836 C138.28163274 173.1427544 138.28163274 173.1427544 133.8125 162.4375 C131.51807603 162.53035528 129.22621566 162.688495 126.9375 162.875 C92.42974208 165.35722236 65.13966699 152.86095706 35.00048828 137.54736328 C33.57664317 136.8251138 32.15063459 136.10710842 30.72216797 135.39404297 C29.03590127 134.54940056 27.36077211 133.6826015 25.6875 132.8125 C23.04293646 131.2936815 23.04293646 131.2936815 20.8125 131.4375 Z M-82.375 210.625 C-91.10695627 219.35695627 -96.2652552 229.68573357 -96.5625 242.1875 C-95.98989071 254.57017591 -91.60121209 265.16631844 -82.3828125 273.71875 C-72.89515224 281.14681141 -61.05931905 283.70599573 -49.1875 282.4375 C-38.16735662 280.15248339 -28.91912794 274.57429092 -22.1875 265.5 C-16.09101144 255.94688993 -14.02622959 245.92744633 -16.375 234.8125 C-19.51716371 222.87227792 -25.62968216 213.61426115 -36.3125 206.9375 C-51.96972548 198.38624608 -68.04290643 200.78924951 -82.375 210.625 Z M58.55859375 211.1875 C50.42561086 218.59515045 46.17858946 228.31476072 44.9375 239.1484375 C44.4720721 251.39500913 48.11879759 262.67925798 56.4375 271.8125 C65.93921528 280.59883517 76.39326468 282.84229631 88.8203125 282.65625 C93.65722663 282.39121361 97.47334212 281.53942055 101.8125 279.4375 C102.42222656 279.14746094 103.03195312 278.85742188 103.66015625 278.55859375 C113.62437222 273.32464294 120.50033808 265.38270172 124.078125 254.72265625 C126.87362004 242.21727684 125.14532528 231.06671454 118.390625 220.13671875 C111.54583199 210.36632872 102.18898003 204.2069167 90.4375 202 C78.1948777 200.51996468 68.25879008 203.65597841 58.55859375 211.1875 Z M-164.5625 237.8125 C-170.40357875 245.28401537 -170.62408425 254.16644416 -169.5625 263.25 C-167.62853431 274.99283741 -163.44950037 284.65034045 -154.1875 292.4375 C-148.6483112 295.68339407 -142.7281655 296.92731557 -136.4140625 297.75 C-133.37338393 298.68887619 -132.141172 299.93279231 -130.1875 302.4375 C-129.1328125 305.40625 -129.1328125 305.40625 -128.3125 308.9375 C-127.97788154 310.28971382 -127.64049479 311.6412447 -127.30078125 312.9921875 C-127.03322021 314.07258301 -127.03322021 314.07258301 -126.76025391 315.17480469 C-117.28259154 352.61682292 -98.67336734 389.03359815 -65.3046875 410.5859375 C-60.01976808 413.72510016 -54.6859142 416.6882929 -49.1875 419.4375 C-48.26195312 419.90027344 -47.33640625 420.36304688 -46.3828125 420.83984375 C-20.02518869 433.40746438 9.80641435 434.48916019 37.8125 427.4375 C38.49900635 427.27048584 39.1855127 427.10347168 39.89282227 426.93139648 C71.55245764 418.78597586 99.49945389 394.03753972 115.83984375 366.4128418 C124.62343812 351.24249709 130.48045112 335.57792385 134.125 318.4375 C134.33632568 317.4467749 134.54765137 316.4560498 134.76538086 315.43530273 C135.16274863 313.52198569 135.54208696 311.60480815 135.90063477 309.68383789 C137.02389673 304.18213631 138.15475823 300.97710935 142.8125 297.4375 C145.2421875 296.13671875 145.2421875 296.13671875 147.6875 295.125 C156.5272224 290.86932384 160.25877133 284.39152001 163.76953125 275.46484375 C166.02661073 268.91339582 167.15389643 263.32640884 167.125 256.4375 C167.14111328 255.66921875 167.15722656 254.9009375 167.17382812 254.109375 C167.1789926 248.03595615 165.89194669 243.66064237 162.5625 238.5 C159.76607128 236.80216828 157.01377935 237.32517441 153.8125 237.4375 C153.090625 237.23125 152.36875 237.025 151.625 236.8125 C149.14175463 236.2987251 147.98708477 237.25791157 145.8125 238.4375 C145.84730469 238.98535156 145.88210938 239.53320312 145.91796875 240.09765625 C146.45861262 255.93079821 141.5233981 271.43412059 131.625 283.875 C119.31027985 296.49689004 102.92691222 302.97556108 85.4375 303.75 C76.46904846 303.50540587 67.48392738 301.22184419 59.484375 297.20703125 C57.81644775 296.29812806 57.81644775 296.29812806 55.8125 296.4375 C55.60496094 297.11554688 55.39742187 297.79359375 55.18359375 298.4921875 C51.00391415 311.1186673 44.60254828 319.42614074 32.67578125 325.53125 C26.84759753 328.00450675 21.52706219 328.46186309 15.5 326.1875 C12.77375862 324.41227305 11.29538216 323.32088197 9.8125 320.4375 C9.21639874 315.76804016 9.97804352 313.16143027 12.8125 309.4375 C15.703125 308.13671875 15.703125 308.13671875 19.0625 307.125 C26.55844327 304.47593198 30.46500307 300.81238065 34.1875 293.875 C34.39375 293.070625 34.6 292.26625 34.8125 291.4375 C35.121875 290.426875 35.43125 289.41625 35.75 288.375 C35.84480933 282.40201214 33.24073598 277.80802748 30.8125 272.4375 C27.45052095 264.26097952 25.5295579 256.10864238 23.8125 247.4375 C17.5425 247.4375 11.2725 247.4375 4.8125 247.4375 C4.296875 249.95375 3.78125 252.47 3.25 255.0625 C-0.42933516 271.31263602 -8.37474061 284.66054494 -22.54296875 293.91015625 C-37.32153841 302.44548969 -53.95347206 305.48342707 -70.6328125 301.64453125 C-86.70496015 297.07646144 -99.67724394 287.73908796 -108.06640625 273.17578125 C-114.48409051 261.26979034 -116.61017617 249.89511766 -117.1875 236.4375 C-118.02152344 236.33953125 -118.85554688 236.2415625 -119.71484375 236.140625 C-130.02165185 234.7711064 -130.02165185 234.7711064 -134.625 232.3125 C-144.97895502 227.23103868 -156.89968799 229.54472915 -164.5625 237.8125 Z " fill="#020201" transform="translate(267.1875,262.5625)"/>
<path d="M0 0 C0.49838379 0.16226074 0.99676758 0.32452148 1.51025391 0.49169922 C4.9484532 1.193634 8.34271815 1.14255074 11.8359375 1.1328125 C12.97139511 1.13424759 12.97139511 1.13424759 14.12979126 1.13571167 C15.72845544 1.13639093 17.3271224 1.13455438 18.92578125 1.13037109 C21.35943888 1.12503413 23.7929107 1.13031699 26.2265625 1.13671875 C27.78385457 1.13605763 29.34114653 1.13477578 30.8984375 1.1328125 C31.62050385 1.13483673 32.34257019 1.13686096 33.08651733 1.13894653 C37.1612181 1.12026045 41.00206528 0.78831413 45 0 C45.32572998 0.48130371 45.65145996 0.96260742 45.98706055 1.45849609 C52.14275535 10.54010549 58.35429803 19.56771509 64.8125 28.4375 C68.98781573 34.17318173 73.02742946 39.96286525 76.921875 45.89453125 C79.48666204 49.72724872 82.14423597 53.48888987 84.8125 57.25 C89.16255156 63.3824353 93.45687319 69.54849448 97.703125 75.75317383 C102.10397647 82.17397199 106.57304193 88.54642506 111.05419922 94.91137695 C114.3755677 99.63919909 117.60602701 104.40697281 120.72729492 109.26977539 C121.9006357 111.14011388 121.9006357 111.14011388 124 112 C125.50606515 108.98786971 125.12160331 105.88717378 125.09765625 102.5859375 C125.0962413 101.85629791 125.09482635 101.12665833 125.09336853 100.37490845 C125.08776531 98.04156415 125.07521235 95.70831536 125.0625 93.375 C125.05748541 91.79427222 125.05292243 90.21354293 125.04882812 88.6328125 C125.03779484 84.75517146 125.02052811 80.87760193 125 77 C124.67 77 124.34 77 124 77 C124 70.33333333 124 63.66666667 124 57 C124.66 56.67 125.32 56.34 126 56 C125.67 50.72 125.34 45.44 125 40 C124.67 40 124.34 40 124 40 C124 37.03 124 34.06 124 31 C124.33 31 124.66 31 125 31 C125.33 21.43 125.66 11.86 126 2 C127.98 1.34 129.96 0.68 132 0 C132 0.66 132 1.32 132 2 C133.07636719 1.83628906 134.15273438 1.67257812 135.26171875 1.50390625 C140.77583121 0.81509775 146.26403381 0.89176122 151.8125 0.9375 C153.36614258 0.94426758 153.36614258 0.94426758 154.95117188 0.95117188 C156.85914275 0.95985011 158.76710625 0.97059206 160.67504883 0.98413086 C163.65223635 1.00445189 166.58737331 0.96908562 169.5625 0.8125 C170.696875 0.874375 171.83125 0.93625 173 1 C175.52276523 4.78414784 174.83450546 5.6609078 174 10 C173.91429349 12.53883987 173.87317747 15.04848407 173.88647461 17.58625793 C173.88625132 18.70157388 173.88625132 18.70157388 173.88602352 19.83942145 C173.88671555 22.31981612 173.89454643 24.80013585 173.90234375 27.28051758 C173.90426369 29.0630082 173.90572713 30.84549937 173.9067688 32.62799072 C173.90992573 36.46009639 173.91618796 40.29217994 173.92483521 44.12427711 C173.9383589 50.17812052 173.94425158 56.23195659 173.94897461 62.28581238 C173.96006953 75.12805142 173.97962272 87.97027285 174 100.8125 C174.02200376 114.69332059 174.04257191 128.57413413 174.05341816 142.45496863 C174.05841506 148.47933514 174.06829538 154.50366838 174.08184814 160.52802145 C174.08927764 164.2646775 174.09261724 168.00132889 174.0948143 171.73799133 C174.09669512 173.47752851 174.10031335 175.21706476 174.10574722 176.95659447 C174.11290285 179.32063829 174.1140037 181.68460757 174.11352539 184.04866028 C174.11712035 184.74591636 174.12071531 185.44317244 174.12441921 186.1615575 C174.1140931 190.8859069 174.1140931 190.8859069 173 192 C166.5855217 192.87584744 160.02105689 192.91528023 153.55810547 193.11914062 C151.37243195 193.20559974 149.18785224 193.32802621 147.00634766 193.48828125 C129.44274732 194.75104124 129.44274732 194.75104124 123.78329468 190.22866821 C119.76294304 185.72147444 116.89967411 180.63257642 114.1741333 175.26898193 C112.7439476 172.50518543 111.05331859 170.00509071 109.23828125 167.48046875 C108.49904419 166.39523926 108.49904419 166.39523926 107.74487305 165.28808594 C103.24080624 158.68283781 98.69238327 152.11781193 94.02099609 145.62988281 C89.93397094 139.94032646 85.93601081 134.1894769 81.9375 128.4375 C81.24664307 127.44516357 80.55578613 126.45282715 79.84399414 125.43041992 C76.88788735 121.17940484 73.93875722 116.92520186 71.04296875 112.6328125 C70.62474854 112.01607666 70.20652832 111.39934082 69.77563477 110.76391602 C68.71213852 109.19134963 67.65649425 107.61348077 66.6015625 106.03515625 C65.80878906 105.02775391 65.80878906 105.02775391 65 104 C64.34 104 63.68 104 63 104 C62.88229248 103.41371826 62.76458496 102.82743652 62.64331055 102.22338867 C61.96761377 99.88806777 61.10211605 98.40464212 59.70703125 96.42578125 C59.24103516 95.75740234 58.77503906 95.08902344 58.29492188 94.40039062 C57.80572266 93.71138672 57.31652344 93.02238281 56.8125 92.3125 C52.79642256 86.58862557 48.88057542 80.82086313 45 75 C44.67 113.61 44.34 152.22 44 192 C0 192 0 192 -3 191 C-3 189.68 -3 188.36 -3 187 C-2.34 187 -1.68 187 -1 187 C-0.97307516 184.70839681 -0.95363876 182.41670454 -0.9375 180.125 C-0.92589844 178.84882812 -0.91429687 177.57265625 -0.90234375 176.2578125 C-0.76823431 173.11335348 -0.76823431 173.11335348 -2 171 C-1.34 171 -0.68 171 0 171 C-0.16371094 170.35675781 -0.32742188 169.71351563 -0.49609375 169.05078125 C-1.15334676 165.07159829 -1.106353 161.2118563 -1.0625 157.1875 C-1.05798828 156.39923828 -1.05347656 155.61097656 -1.04882812 154.79882812 C-1.03711312 152.86585239 -1.01917998 150.93291607 -1 149 C-1.66 148.67 -2.32 148.34 -3 148 C-2.67475342 147.13576416 -2.34950684 146.27152832 -2.0144043 145.38110352 C-1.00285486 142.00951552 -0.75550353 139.40514749 -0.76953125 135.90234375 C-0.77146484 134.77119141 -0.77339844 133.64003906 -0.77539062 132.47460938 C-0.78763672 131.30736328 -0.79988281 130.14011719 -0.8125 128.9375 C-0.81314453 127.76638672 -0.81378906 126.59527344 -0.81445312 125.38867188 C-0.77532109 119.3124608 -0.77532109 119.3124608 -1.57299805 113.31469727 C-2 111 -2 111 -1 108 C-1.66 108 -2.32 108 -3 108 C-2.34 105.03 -1.68 102.06 -1 99 C-1.66 98.67 -2.32 98.34 -3 98 C-2.34 98 -1.68 98 -1 98 C0.11156359 82.61047711 0.11156359 82.61047711 -3 68 C-2.34 68 -1.68 68 -1 68 C-1.11821673 62.64299574 -1.24246299 57.28617825 -1.37231445 51.92944336 C-1.41564287 50.10689096 -1.45731947 48.28429852 -1.49731445 46.46166992 C-1.55506762 43.84281339 -1.61874756 41.22415805 -1.68359375 38.60546875 C-1.70030624 37.78974899 -1.71701874 36.97402924 -1.73423767 36.1335907 C-1.82013245 32.85820456 -1.95752134 30.12743599 -3 27 C-2.34 27 -1.68 27 -1 27 C-1.185625 25.741875 -1.37125 24.48375 -1.5625 23.1875 C-2.00732761 20.17255732 -1.99843846 18.99531539 -1 16 C-0.95522015 13.64625926 -0.96105325 11.29134448 -1 8.9375 C-1.11088911 2.22177822 -1.11088911 2.22177822 0 0 Z M123 113 C123.99 114.32 124.98 115.64 126 117 C126 115.68 126 114.36 126 113 C125.01 113 124.02 113 123 113 Z " fill="#020201" transform="translate(508,536)"/>
<path d="M0 0 C0.99 0.66 1.98 1.32 3 2 C4.91448052 2.32460157 4.91448052 2.32460157 7.01245117 2.31884766 C7.81305466 2.33871735 8.61365814 2.35858704 9.43852234 2.37905884 C10.29798965 2.39061005 11.15745697 2.40216125 12.04296875 2.4140625 C12.9265657 2.43342865 13.81016266 2.4527948 14.72053528 2.4727478 C17.54275866 2.53252805 20.36502286 2.57892266 23.1875 2.625 C25.10092925 2.66318122 27.01434133 2.70223304 28.92773438 2.7421875 C33.61835021 2.83822832 38.30904652 2.9222651 43 3 C43.495 7.95 43.495 7.95 44 13 C44.66644531 12.54109375 45.33289063 12.0821875 46.01953125 11.609375 C60.29564446 2.10527726 74.47355141 -0.72760712 91.5 1.5625 C102.26679523 3.81016674 110.83975038 9.88740191 118 18 C118.9931743 19.00677943 119.99086816 20.00921601 121 21 C121.70962891 20.23816406 121.70962891 20.23816406 122.43359375 19.4609375 C135.00734163 6.37247479 148.9687907 1.12843052 167.0625 0.75 C182.41657871 1.07366964 194.45462788 5.00830375 205.68359375 15.5859375 C216.44274155 27.04373126 218.96722196 42.06133253 219.5703125 57.140625 C219.63242165 58.67160828 219.63242165 58.67160828 219.69578552 60.23352051 C220.2390013 75.49012555 220.11083589 90.76066794 220.06866455 106.02441406 C220.05639702 110.95085861 220.0520037 115.87731638 220.04621124 120.80377197 C220.03666996 128.20254104 220.01744994 135.60122644 220 143 C204.82 143 189.64 143 174 143 C172.87825789 132.90432099 172.87825789 132.90432099 172.97265625 128.81640625 C172.98490234 127.95208984 172.99714844 127.08777344 173.00976562 126.19726562 C173.04547056 124.4133411 173.08463484 122.62948302 173.12695312 120.84570312 C173.14338867 119.56276367 173.14338867 119.56276367 173.16015625 118.25390625 C173.17699463 117.48377197 173.19383301 116.7136377 173.21118164 115.92016602 C173.17612346 113.75907911 173.17612346 113.75907911 171 112 C171.99 111.67 172.98 111.34 174 111 C173.34 110.01 172.68 109.02 172 108 C171.875 105.4375 171.875 105.4375 172 103 C172.09024853 100.9746176 172.09024853 100.9746176 171.4375 99 C171 97 171 97 172 95 C172.66 95 173.32 95 174 95 C174.02902429 91.72918529 174.04680684 88.4584037 174.0625 85.1875 C174.07087891 84.25873047 174.07925781 83.32996094 174.08789062 82.37304688 C174.09111328 81.48037109 174.09433594 80.58769531 174.09765625 79.66796875 C174.10289307 78.84578857 174.10812988 78.0236084 174.11352539 77.17651367 C174.08741524 74.81827404 174.08741524 74.81827404 173 72 C173.00567794 69.79128092 173.05285791 67.5825479 173.125 65.375 C173.17101774 59.01797748 173.04469579 52.31855731 168.5234375 47.390625 C168.02070312 46.93171875 167.51796875 46.4728125 167 46 C166.319375 45.319375 165.63875 44.63875 164.9375 43.9375 C159.53865615 40.37656044 153.59653872 39.42430349 147.25 40.625 C141.94930731 42.10208897 138.30075855 44.44631618 134.75 48.6875 C131.28217138 55.25160418 130.70269498 62.22517851 130.68115234 69.54907227 C130.67110672 70.35017929 130.6610611 71.15128632 130.65071106 71.97666931 C130.6201453 74.58990852 130.60291893 77.2030466 130.5859375 79.81640625 C130.56720437 81.64201207 130.54762939 83.46760942 130.5272522 85.29319763 C130.47615145 90.07210273 130.43640834 94.85103583 130.39910889 99.63006592 C130.35185211 105.37804552 130.29034966 111.12588858 130.23126221 116.87375641 C130.14331917 125.58244848 130.07336234 134.29111796 130 143 C115.48 143 100.96 143 86 143 C86.0625 123.3125 86.0625 123.3125 86.09008789 117.12231445 C86.09300986 115.49430405 86.09555776 113.86629292 86.09765625 112.23828125 C86.10277222 111.40018921 86.10788818 110.56209717 86.11315918 109.6986084 C86.1137637 105.63924073 85.91116152 101.97597755 85 98 C85.42069876 95.22919094 86.22087258 92.70403047 87 90 C86.34 89.67 85.68 89.34 85 89 C85.16242188 88.30648437 85.32484375 87.61296875 85.4921875 86.8984375 C86.81558815 79.34487382 86.1810659 71.52929513 85 64 C85.0825 62.741875 85.165 61.48375 85.25 60.1875 C85.32347068 54.80314877 82.87674771 50.42878053 80 46 C75.31476933 41.42632244 71.59966471 40.8319446 65.1875 40.75 C63.98480469 40.72421875 62.78210938 40.6984375 61.54296875 40.671875 C57.6787115 41.0297555 55.35170985 42.10659472 52 44 C51.01 44.33 50.02 44.66 49 45 C47.88214887 47.11785113 47.88214887 47.11785113 47 50 C46.75622714 50.64505462 46.51245428 51.29010923 46.26129436 51.95471096 C44.29804939 57.34347562 43.55674136 62.02013465 43.56762695 67.73266602 C43.55233948 68.96358727 43.55233948 68.96358727 43.53674316 70.21937561 C43.50685424 72.89762411 43.49738454 75.57551359 43.48828125 78.25390625 C43.47141664 80.12435573 43.45326402 81.99479401 43.43388367 83.86521912 C43.38657104 88.76250708 43.35664081 93.65974958 43.33044434 98.55718994 C43.30054385 103.56491064 43.2540463 108.57247497 43.20898438 113.58007812 C43.12316466 123.38663663 43.05572492 133.19322751 43 143 C40.66672559 144.1666372 39.41763902 144.08993787 36.82568359 144.02172852 C35.96494232 144.00163223 35.10420105 143.98153595 34.21737671 143.96083069 C33.28712677 143.93379562 32.35687683 143.90676056 31.3984375 143.87890625 C30.44683746 143.85529526 29.49523743 143.83168427 28.51480103 143.80735779 C25.4680522 143.73063367 22.42155199 143.64664697 19.375 143.5625 C17.31251227 143.50928808 15.25001231 143.45654762 13.1875 143.40429688 C8.12484184 143.27500668 3.06239495 143.13920166 -2 143 C-2 101 -2 101 -1.96484375 98.09375 C-1.9029522 89.95943145 -2.14318881 81.90244454 -2.73217773 73.78710938 C-3.03949558 69.01320026 -2.83969415 64.57914468 -2.13647461 59.84326172 C-1.83471766 57.90386866 -1.83471766 57.90386866 -3 56 C-3.07017429 52.91233143 -2.99687882 49.83769863 -2.9375 46.75 C-2.80344194 44.03746987 -2.80344194 44.03746987 -4 42 C-3.34 42 -2.68 42 -2 42 C-2.01047363 40.86981445 -2.02094727 39.73962891 -2.03173828 38.57519531 C-2.06796432 34.37828748 -2.09090998 30.18139346 -2.10986328 25.984375 C-2.11991491 24.16859614 -2.13355828 22.35283344 -2.15087891 20.53710938 C-2.17516406 17.92574065 -2.18649148 15.31458613 -2.1953125 12.703125 C-2.20563507 11.89256653 -2.21595764 11.08200806 -2.22659302 10.24688721 C-2.22797609 3.28414468 -2.22797609 3.28414468 0 0 Z " fill="#020201" transform="translate(509,369)"/>
<path d="M0 0 C5.52103824 5.60236286 9.2945795 11.63128889 12 19 C12.66 19 13.32 19 14 19 C14.77804963 26.50357305 15.1903875 33.94712172 15.31640625 41.48828125 C15.33723267 42.57021759 15.35805908 43.65215393 15.3795166 44.76687622 C15.44522895 48.28201728 15.50431226 51.79722689 15.5625 55.3125 C15.58367889 56.51311066 15.60485779 57.71372131 15.62667847 58.95071411 C16.04748034 82.96788628 16.11378929 106.97995654 16 131 C13.71368506 132.14315747 12.45652594 132.12112732 9.91748047 132.11352539 C8.65639969 132.11341209 8.65639969 132.11341209 7.36984253 132.11329651 C6.00727829 132.10555458 6.00727829 132.10555458 4.6171875 132.09765625 C3.68778351 132.0962413 2.75837952 132.09482635 1.80081177 132.09336853 C-1.17449124 132.08776053 -4.14971964 132.07520668 -7.125 132.0625 C-9.13932183 132.05748603 -11.15364484 132.05292295 -13.16796875 132.04882812 C-18.11200802 132.0377885 -23.05599135 132.02051849 -28 132 C-28 129.36 -28 126.72 -28 124 C-28.66 123.67 -29.32 123.34 -30 123 C-29.34 123 -28.68 123 -28 123 C-28.66 122.01 -29.32 121.02 -30 120 C-30.433125 120.474375 -30.86625 120.94875 -31.3125 121.4375 C-33 123 -33 123 -36 124 C-37.79518225 124.95173154 -39.58631033 125.91112165 -41.375 126.875 C-58.76585515 135.51848356 -78.80662171 135.06445943 -97 129 C-98.68996005 127.69631653 -100.35135455 126.35555293 -102 125 C-102.62390625 124.58878906 -103.2478125 124.17757812 -103.890625 123.75390625 C-112.22792898 118.13736368 -117.26837271 108.92650915 -119.6875 99.25 C-120.94250236 86.19797546 -118.94225936 75.68339313 -111 65 C-97.24113557 49.00679006 -74.59334832 44.72486555 -54.61767578 43.17919922 C-46.75213477 42.64074491 -38.8778145 42.29786761 -31 42 C-30.98643521 40.56382837 -30.97677274 39.12761953 -30.96875 37.69140625 C-30.96004883 36.49173218 -30.96004883 36.49173218 -30.95117188 35.26782227 C-31.00534532 32.75173645 -31.37139221 30.43585519 -32 28 C-32.66 28 -33.32 28 -34 28 C-34.2578125 27.38511719 -34.515625 26.77023437 -34.78125 26.13671875 C-36.86451324 22.48433096 -40.14582827 21.36636188 -44 20 C-52.32812109 17.99257016 -59.56080895 19.44982642 -66.9375 23.6875 C-69.76650184 26.57916751 -69.76650184 26.57916751 -72 34 C-86.85 34 -101.7 34 -117 34 C-113.81779065 18.08895323 -107.4289905 6.11962154 -94.3125 -3.75 C-66.75599524 -21.75301697 -25.8027909 -21.11473018 0 0 Z M-72.4375 77.3125 C-75.1571737 81.99033877 -75.38786191 85.47440983 -74.0625 90.6875 C-70.76563139 95.9824708 -66.55001933 97.32640999 -60.6875 98.875 C-52.1624863 99.16398352 -44.6321804 97.52923574 -38 92 C-33.54147879 87.66063748 -30.23762496 83.52160191 -29.8046875 77.10546875 C-29.82789063 76.14253906 -29.85109375 75.17960938 -29.875 74.1875 C-29.89304687 73.21167969 -29.91109375 72.23585938 -29.9296875 71.23046875 C-29.95289063 70.49441406 -29.97609375 69.75835938 -30 69 C-52.75897104 67.73166658 -52.75897104 67.73166658 -72.4375 77.3125 Z " fill="#030201" transform="translate(890,596)"/>
<path d="M0 0 C2.04244559 3.17927851 1.68823091 3.9422937 0.91015625 7.54296875 C0.37273634 9.54113725 -0.19269447 11.53191637 -0.78125 13.515625 C-1.07040283 14.54582764 -1.35955566 15.57603027 -1.6574707 16.63745117 C-7.61202743 37.42364329 -7.61202743 37.42364329 -12.34375 40.578125 C-12.67375 40.248125 -13.00375 39.918125 -13.34375 39.578125 C-23.04474717 38.61926707 -35.02398244 37.82744722 -43.34375 43.578125 C-48.45939936 47.82466404 -51.00827403 53.10279697 -52.34375 59.578125 C-52.80798409 65.48502786 -52.83345642 71.37824898 -52.85546875 77.30078125 C-52.87233662 79.01429006 -52.89048967 80.72778665 -52.90986633 82.44126892 C-52.9571438 86.92426739 -52.98709652 91.40721632 -53.01330566 95.89038086 C-53.04849577 101.28380356 -53.10544455 106.6770361 -53.15869904 112.07030487 C-53.23695173 120.23955329 -53.28775438 128.40855726 -53.34375 136.578125 C-68.19375 136.578125 -83.04375 136.578125 -98.34375 136.578125 C-98.67375 111.828125 -99.00375 87.078125 -99.34375 61.578125 C-99.67375 61.578125 -100.00375 61.578125 -100.34375 61.578125 C-100.34375 57.288125 -100.34375 52.998125 -100.34375 48.578125 C-100.01375 48.578125 -99.68375 48.578125 -99.34375 48.578125 C-99.01375 31.748125 -98.68375 14.918125 -98.34375 -2.421875 C-93.84322738 -4.67213631 -93.84322738 -4.67213631 -90.23364258 -4.57299805 C-89.43634232 -4.55605392 -88.63904205 -4.5391098 -87.81758118 -4.52165222 C-86.9664122 -4.49259293 -86.11524323 -4.46353363 -85.23828125 -4.43359375 C-84.35847092 -4.41093948 -83.47866058 -4.38828522 -82.57218933 -4.36494446 C-80.71701292 -4.31506997 -78.86196696 -4.26011884 -77.00708008 -4.20043945 C-74.15661781 -4.10938675 -71.30608006 -4.03484717 -68.45507812 -3.96289062 C-66.65361848 -3.91242562 -64.85218472 -3.86102586 -63.05078125 -3.80859375 C-62.19353958 -3.78560715 -61.33629791 -3.76262054 -60.45307922 -3.73893738 C-54.45998407 -3.53810907 -54.45998407 -3.53810907 -53.34375 -2.421875 C-53.27148498 -0.56899998 -53.2599378 1.28646378 -53.28125 3.140625 C-53.29027344 4.15253906 -53.29929687 5.16445313 -53.30859375 6.20703125 C-53.32019531 6.98949219 -53.33179688 7.77195312 -53.34375 8.578125 C-50.24451884 8.578125 -48.70261517 6.69438114 -46.28125 4.828125 C-32.41680003 -5.37639865 -15.41968559 -9.35460926 0 0 Z " fill="#020201" transform="translate(845.34375,375.421875)"/>
<path d="M0 0 C15.18 0 30.36 0 46 0 C46.15320418 17.23738129 46.30205756 34.47478149 46.4429636 51.71226692 C46.50852954 59.71608282 46.57605168 67.71987326 46.64819336 75.72363281 C46.71107348 82.70042109 46.77026863 89.67722929 46.82505554 96.65408599 C46.85418778 100.34760804 46.88515386 104.041094 46.92053413 107.73456192 C46.95997968 111.85962943 46.99119738 115.98472016 47.02172852 120.10986328 C47.03467453 121.33193985 47.04762054 122.55401642 47.06095886 123.81312561 C47.06799835 124.94045609 47.07503784 126.06778656 47.08229065 127.22927856 C47.09058679 128.20453554 47.09888292 129.17979252 47.10743046 130.18460274 C46.99261109 133.19363887 46.55443376 136.04291525 46 139 C39.62793828 139.02529825 33.25588946 139.04284496 26.88378906 139.05493164 C24.71483883 139.05996891 22.545892 139.06679891 20.37695312 139.07543945 C17.26431437 139.08753151 14.1517204 139.09323428 11.0390625 139.09765625 C10.065065 139.10281754 9.0910675 139.10797882 8.08755493 139.11329651 C7.18677216 139.11337204 6.28598938 139.11344757 5.35791016 139.11352539 C4.56293121 139.115746 3.76795227 139.11796661 2.94888306 139.12025452 C1 139 1 139 -1 138 C-0.34 135.36 0.32 132.72 1 130 C0.34 129.67 -0.32 129.34 -1 129 C-1.05441656 127.10448978 -1.09298035 125.2085208 -1.125 123.3125 C-1.14820313 122.25675781 -1.17140625 121.20101562 -1.1953125 120.11328125 C-0.99858729 116.97748141 -0.33057654 114.82354627 1 112 C0.34 112 -0.32 112 -1 112 C-1 105.07 -1 98.14 -1 91 C-0.34 91 0.32 91 1 91 C0.51104248 90.15743652 0.51104248 90.15743652 0.01220703 89.29785156 C-1.12012031 86.72731009 -1.23113622 85.02862481 -1.1953125 82.234375 C-1.18886719 81.34492187 -1.18242188 80.45546875 -1.17578125 79.5390625 C-1.15902344 78.61867188 -1.14226563 77.69828125 -1.125 76.75 C-1.11597656 75.81414062 -1.10695313 74.87828125 -1.09765625 73.9140625 C-1.07413636 71.60911343 -1.04126853 69.3046884 -1 67 C-0.34 67 0.32 67 1 67 C0.67 65.824375 0.34 64.64875 0 63.4375 C-1.19855237 58.62628977 -1.46035581 54.19947775 -0.4375 49.3125 C0.15601205 47.07508071 0.15601205 47.07508071 -0.46655273 45.19921875 C-1.10452514 42.56907895 -1.11243244 40.20608854 -1.09765625 37.5 C-1.09443359 36.448125 -1.09121094 35.39625 -1.08789062 34.3125 C-1.07951172 33.219375 -1.07113281 32.12625 -1.0625 31 C-1.05798828 29.906875 -1.05347656 28.81375 -1.04882812 27.6875 C-1.04011561 25.65623897 -1.02934928 23.62498498 -1.01586914 21.59375 C-0.99596564 18.34059928 -0.99901156 15.08896004 -1.03515625 11.8359375 C-1.04417969 10.69382812 -1.05320312 9.55171875 -1.0625 8.375 C-1.07410156 7.22773437 -1.08570313 6.08046875 -1.09765625 4.8984375 C-1 2 -1 2 0 0 Z M0 85 C1 87 1 87 1 87 Z " fill="#030302" transform="translate(705,589)"/>
<path d="M0 0 C2.40294825 2.04250601 4.36768302 4.18047135 6.29296875 6.67578125 C14.39428901 16.91022225 26.13546551 20.73099141 38.73828125 22.53515625 C56.00293296 24.09489114 71.29048917 20.53071867 85.46484375 10.453125 C88.40340208 8.76877415 90.62742525 8.22122646 94 8 C97.40153266 9.05811035 100.17183034 11.03380206 102.5 13.75 C103.27840443 17.25281992 103.09797769 20.61141369 102 24 C99.14718167 28.33053718 95.59000601 30.90570673 91.1875 33.5 C90.20378418 34.08309937 90.20378418 34.08309937 89.20019531 34.67797852 C82.41780208 38.55189911 75.53864655 40.977229 68 43 C67.11441406 43.24492188 66.22882813 43.48984375 65.31640625 43.7421875 C44.98400669 48.37328007 22.17479072 44.57206463 4.46240234 33.79101562 C-3.81136079 28.5404851 -10.87391547 23.07738596 -15 14 C-15.65190095 10.00710666 -15.21470391 8.40555184 -13.3125 4.8125 C-9.29970831 -0.06792232 -6.25199593 -2.08399864 0 0 Z " fill="#070604" transform="translate(236,592)"/>
<path d="M0 0 C5.4189809 5.4189809 8.37568494 11.2584179 8.5625 18.9375 C8.45984407 26.04642284 7.05375966 30.26003239 2.19140625 35.4453125 C-1.79864132 39.19985979 -5.24926056 42.19666692 -10.75 43.25 C-11.9875 43.4975 -13.225 43.745 -14.5 44 C-22.65680728 44.82344912 -29.29205253 42.61855474 -35.84375 37.80859375 C-41.37112397 33.28928593 -43.59582509 28.20320004 -44.75 21.25 C-44.98790267 15.3975944 -45.13394274 10.16309731 -41.625 5.3125 C-40.201875 4.2915625 -40.201875 4.2915625 -38.75 3.25 C-37.62247536 2.21106659 -36.49761617 1.16923531 -35.375 0.125 C-24.34271569 -9.02142374 -11.53279294 -7.33905006 0 0 Z " fill="#030302" transform="translate(745.75,535.75)"/>
<path d="M0 0 C0.33 0.66 0.66 1.32 1 2 C1.5775 2.12375 2.155 2.2475 2.75 2.375 C6.98374919 3.55104144 9.40999544 6.1543268 11.875 9.6875 C13.37587053 14.10672988 13.17633381 17.51220595 12 22 C9.55829963 26.79296738 6.85940247 29.6602877 2 32 C-2.90565755 32.79463544 -7.40016362 32.66534636 -11.875 30.375 C-15.36131722 27.72539891 -17.15609286 25.98283943 -19 22 C-19.64872936 16.88407099 -19.77726088 11.49651761 -17 7 C-11.50830289 1.94185793 -7.250532 0.7250532 0 0 Z " fill="#060604" transform="translate(352,491)"/>
<path d="M0 0 C4.14812733 2.30362023 6.37627159 4.90579793 7.8125 9.4375 C8.7706083 14.51091156 8.22049036 18.33610049 5.625 22.8125 C2.82848434 26.77488698 0.07331924 28.72355708 -4.5625 30.1875 C-10.00558839 30.70588937 -13.75954892 30.11609902 -18 26.625 C-21.14434297 23.82603109 -22.94982018 21.30807101 -23.48828125 17.0703125 C-23.51291254 11.79921544 -23.35643157 7.8740042 -20.1875 3.4375 C-13.78170676 -1.50029896 -7.67037261 -3.34863282 0 0 Z " fill="#060604" transform="translate(223.1875,493.5625)"/>
<path d="M0 0 C0.81739655 0.01694412 1.63479309 0.03388824 2.47695923 0.05134583 C3.79426529 0.09493477 3.79426529 0.09493477 5.13818359 0.1394043 C6.49331558 0.1733857 6.49331558 0.1733857 7.87582397 0.20805359 C9.7840496 0.25799338 11.69214942 0.31295529 13.60009766 0.37255859 C16.53186597 0.46347559 19.463709 0.53807857 22.39599609 0.61010742 C24.24758497 0.66058128 26.09914887 0.71198169 27.95068359 0.7644043 C28.8329361 0.7873909 29.7151886 0.8103775 30.62417603 0.83406067 C36.79542961 1.03493157 36.79542961 1.03493157 37.91162109 2.15112305 C37.95242892 4.15070668 37.95416466 6.15157559 37.91162109 8.15112305 C37.58162109 8.15112305 37.25162109 8.15112305 36.91162109 8.15112305 C36.91162109 6.50112305 36.91162109 4.85112305 36.91162109 3.15112305 C16.12162109 3.64612305 16.12162109 3.64612305 -5.08837891 4.15112305 C-5.41837891 49.36112305 -5.74837891 94.57112305 -6.08837891 141.15112305 C-6.41837891 141.15112305 -6.74837891 141.15112305 -7.08837891 141.15112305 C-7.41837891 116.40112305 -7.74837891 91.65112305 -8.08837891 66.15112305 C-8.41837891 66.15112305 -8.74837891 66.15112305 -9.08837891 66.15112305 C-9.08837891 61.86112305 -9.08837891 57.57112305 -9.08837891 53.15112305 C-8.75837891 53.15112305 -8.42837891 53.15112305 -8.08837891 53.15112305 C-8.08251266 52.51663239 -8.07664642 51.88214172 -8.07060242 51.22842407 C-8.00681738 44.64246279 -7.92243723 38.05699695 -7.82592773 31.47143555 C-7.79261124 29.01154093 -7.76460054 26.55156862 -7.74194336 24.09155273 C-7.70852109 20.56159255 -7.65621125 17.03234871 -7.60009766 13.50268555 C-7.59370773 12.39744537 -7.58731781 11.2922052 -7.58073425 10.1534729 C-7.56094009 9.13256561 -7.54114594 8.11165833 -7.52075195 7.05981445 C-7.5096489 6.15824615 -7.49854584 5.25667786 -7.48710632 4.32778931 C-7.35552628 3.60948944 -7.22394623 2.89118958 -7.08837891 2.15112305 C-3.99743874 0.09049627 -3.46621749 -0.09255325 0 0 Z " fill="#3D3823" transform="translate(754.08837890625,370.848876953125)"/>
<path d="M0 0 C0.90483627 0.02123932 1.80967255 0.04247864 2.7419281 0.06436157 C4.65605946 0.11065431 6.57012856 0.15958504 8.48413086 0.2109375 C11.42483472 0.28883049 14.36564718 0.35593455 17.30664062 0.421875 C19.16277666 0.46810247 21.01889722 0.51495614 22.875 0.5625 C24.20308434 0.59227432 24.20308434 0.59227432 25.55799866 0.62265015 C31.75605813 0.79902688 31.75605813 0.79902688 32.87109375 1.9140625 C32.91190158 3.91364614 32.91363731 5.91451504 32.87109375 7.9140625 C32.54109375 7.9140625 32.21109375 7.9140625 31.87109375 7.9140625 C31.87109375 6.2640625 31.87109375 4.6140625 31.87109375 2.9140625 C17.68109375 3.2440625 3.49109375 3.5740625 -11.12890625 3.9140625 C-11.12890625 2.9240625 -11.12890625 1.9340625 -11.12890625 0.9140625 C-7.69772635 -0.80152745 -3.76691494 -0.10190775 0 0 Z " fill="#393217" transform="translate(759.12890625,371.0859375)"/>
<path d="M0 0 C0.33 0 0.66 0 1 0 C1 17.82 1 35.64 1 54 C-1.01700111 49.96599778 -1.22412403 48.5414185 -1.125 44.2109375 C-1.10953125 43.10492188 -1.0940625 41.99890625 -1.078125 40.859375 C-1.05234375 39.70953125 -1.0265625 38.5596875 -1 37.375 C-0.9491388 35.09133209 -0.90701883 32.8074473 -0.875 30.5234375 C-0.84019531 29.0062915 -0.84019531 29.0062915 -0.8046875 27.45849609 C-0.74668317 24.82072549 -0.74668317 24.82072549 -3 23 C-2.01 22.67 -1.02 22.34 0 22 C-0.66 21.01 -1.32 20.02 -2 19 C-2.125 16.4375 -2.125 16.4375 -2 14 C-1.90975147 11.9746176 -1.90975147 11.9746176 -2.5625 10 C-3 8 -3 8 -2 6 C-1.34 6 -0.68 6 0 6 C0 4.02 0 2.04 0 0 Z " fill="#3D3A2C" transform="translate(683,458)"/>
<path d="M0 0 C0.66 0.33 1.32 0.66 2 1 C-0.78375705 3.85786389 -3.57723598 6.70581784 -6.38012695 9.54492188 C-7.33240279 10.51229259 -8.28196984 11.48233757 -9.22875977 12.45507812 C-10.58937548 13.85204345 -11.96056764 15.238683 -13.33203125 16.625 C-14.56530151 17.88183594 -14.56530151 17.88183594 -15.82348633 19.1640625 C-18 21 -18 21 -21 21 C-20 19 -20 19 -17.0625 16.5625 C-13.90829594 14.1681241 -13.90829594 14.1681241 -12 11 C-11.34 11 -10.68 11 -10 11 C-10 10.34 -10 9.68 -10 9 C-9.34 9 -8.68 9 -8 9 C-8 8.34 -8 7.68 -8 7 C-6.25 5.2734375 -6.25 5.2734375 -4 3.375 C-3.2575 2.74335938 -2.515 2.11171875 -1.75 1.4609375 C-0.88375 0.73777344 -0.88375 0.73777344 0 0 Z " fill="#201C0D" transform="translate(157,300)"/>
<path d="M0 0 C0.33 0 0.66 0 1 0 C1 11.55 1 23.1 1 35 C-1 31 -1 31 -0.625 28.75 C-0.41875 28.1725 -0.2125 27.595 0 27 C-0.66 27 -1.32 27 -2 27 C-1.34 24.03 -0.68 21.06 0 18 C-0.66 17.67 -1.32 17.34 -2 17 C-1.34 17 -0.68 17 0 17 C0 11.39 0 5.78 0 0 Z " fill="#514828" transform="translate(507,617)"/>
<path d="M0 0 C0.33 0 0.66 0 1 0 C1 9.24 1 18.48 1 28 C0.67 28 0.34 28 0 28 C0 18.76 0 9.52 0 0 Z " fill="#282417" transform="translate(745,393)"/>
<path d="M0 0 C0.99386719 0.10183594 1.98773438 0.20367187 3.01171875 0.30859375 C3.77097656 0.39238281 4.53023438 0.47617187 5.3125 0.5625 C5.3125 0.8925 5.3125 1.2225 5.3125 1.5625 C1.61381555 2.31904909 -1.08638984 2.76287005 -4.6875 1.5625 C-5.43 1.376875 -6.1725 1.19125 -6.9375 1 C-7.515 0.855625 -8.0925 0.71125 -8.6875 0.5625 C-5.3763987 -0.54120043 -3.44001051 -0.36423641 0 0 Z " fill="#322D1F" transform="translate(421.6875,498.4375)"/>
<path d="M0 0 C0.33 0 0.66 0 1 0 C1 6.27 1 12.54 1 19 C0.67 19 0.34 19 0 19 C0 12.73 0 6.46 0 0 Z " fill="#252116" transform="translate(745,474)"/>
<path d="M0 0 C0.33 0 0.66 0 1 0 C1 2.97 1 5.94 1 9 C0.67 9 0.34 9 0 9 C0 6.03 0 3.06 0 0 Z " fill="#2A2618" transform="translate(745,503)"/>
<path d="M0 0 C0.33 0 0.66 0 1 0 C1 2.97 1 5.94 1 9 C0.67 9 0.34 9 0 9 C0 6.03 0 3.06 0 0 Z " fill="#231F15" transform="translate(745,464)"/>
<path d="M0 0 C0.33 0 0.66 0 1 0 C1 2.97 1 5.94 1 9 C0.67 9 0.34 9 0 9 C0 6.03 0 3.06 0 0 Z " fill="#242016" transform="translate(745,449)"/>
<path d="M0 0 C0.33 0 0.66 0 1 0 C1 2.31 1 4.62 1 7 C0.67 7 0.34 7 0 7 C0 4.69 0 2.38 0 0 Z " fill="#26231B" transform="translate(632,538)"/>
<path d="M0 0 C0.99 0.495 0.99 0.495 2 1 C2 2.65 2 4.3 2 6 C0 2.25 0 2.25 0 0 Z " fill="#232019" transform="translate(680,426)"/>
<path d="M0 0 C0.33 0 0.66 0 1 0 C1 1.98 1 3.96 1 6 C0.67 6 0.34 6 0 6 C0 4.02 0 2.04 0 0 Z " fill="#201C17" transform="translate(632,584)"/>
<path d="M0 0 C0.33 0 0.66 0 1 0 C1 1.98 1 3.96 1 6 C0.67 6 0.34 6 0 6 C0 4.02 0 2.04 0 0 Z " fill="#1F1D16" transform="translate(632,577)"/>
<path d="M0 0 C0.33 0 0.66 0 1 0 C1 1.98 1 3.96 1 6 C0.67 6 0.34 6 0 6 C0 4.02 0 2.04 0 0 Z " fill="#252017" transform="translate(745,440)"/>
<path d="M0 0 C1.32 0.33 2.64 0.66 4 1 C3.01 1.495 3.01 1.495 2 2 C1.34 1.34 0.68 0.68 0 0 Z " fill="#4D3F18" transform="translate(225,709)"/>
<path d="M0 0 C0.33 0.99 0.66 1.98 1 3 C0.01 3.495 0.01 3.495 -1 4 C-0.67 2.68 -0.34 1.36 0 0 Z " fill="#433919" transform="translate(506,697)"/>
<path d="M0 0 C0.33 0 0.66 0 1 0 C1 1.65 1 3.3 1 5 C0.67 5 0.34 5 0 5 C0 3.35 0 1.7 0 0 Z " fill="#28241A" transform="translate(768,680)"/>
<path d="M0 0 C1.65 0 3.3 0 5 0 C5 0.33 5 0.66 5 1 C3.35 1 1.7 1 0 1 C0 0.67 0 0.34 0 0 Z " fill="#2A261D" transform="translate(809,631)"/>
<path d="M0 0 C1.65 0 3.3 0 5 0 C5 0.33 5 0.66 5 1 C3.35 1 1.7 1 0 1 C0 0.67 0 0.34 0 0 Z " fill="#2B251B" transform="translate(801,631)"/>
<path d="M0 0 C0.33 0 0.66 0 1 0 C1 1.65 1 3.3 1 5 C0.67 5 0.34 5 0 5 C0 3.35 0 1.7 0 0 Z " fill="#211E18" transform="translate(632,552)"/>
<path d="M0 0 C0.99 0.33 1.98 0.66 3 1 C2.01 1 1.02 1 0 1 C0 0.67 0 0.34 0 0 Z " fill="#24221A" transform="translate(787,650)"/>
<path d="M0 0 C1 4 1 4 1 4 Z " fill="#201C16" transform="translate(632,640)"/>
<path d="M0 0 C4 1 4 1 4 1 Z " fill="#28251C" transform="translate(814,640)"/>
<path d="M0 0 C0.66 0 1.32 0 2 0 C1.67 0.99 1.34 1.98 1 3 C0.67 2.01 0.34 1.02 0 0 Z " fill="#362F1F" transform="translate(400,568)"/>
<path d="M0 0 C1 4 1 4 1 4 Z " fill="#312B1F" transform="translate(432,521)"/>
<path d="M0 0 C1 4 1 4 1 4 Z " fill="#282518" transform="translate(745,498)"/>
<path d="M0 0 C0.99 0 1.98 0 3 0 C2.67 0.66 2.34 1.32 2 2 C1.34 1.34 0.68 0.68 0 0 Z " fill="#322D22" transform="translate(240,482)"/>
<path d="M0 0 C1 4 1 4 1 4 Z " fill="#25221B" transform="translate(681,433)"/>
<path d="M0 0 C1 4 1 4 1 4 Z " fill="#433916" transform="translate(97,410)"/>
<path d="M0 0 C0.66 0.33 1.32 0.66 2 1 C1.01 1 0.02 1 -1 1 C-0.67 0.67 -0.34 0.34 0 0 Z " fill="#403512" transform="translate(200,272)"/>
<path d="M0 0 C0.33 0.66 0.66 1.32 1 2 C0.34 1.67 -0.32 1.34 -1 1 C-0.67 0.67 -0.34 0.34 0 0 Z " fill="#342B15" transform="translate(860,716)"/>
<path d="M0 0 C0.66 0.66 1.32 1.32 2 2 C1.34 2 0.68 2 0 2 C0 1.34 0 0.68 0 0 Z " fill="#4E4118" transform="translate(201,698)"/>
<path d="M0 0 C3 1 3 1 3 1 Z " fill="#453E23" transform="translate(274,638)"/>
<path d="M0 0 C0.66 0.66 1.32 1.32 2 2 C1.34 2 0.68 2 0 2 C0 1.34 0 0.68 0 0 Z " fill="#4B3E17" transform="translate(139,637)"/>
<path d="M0 0 C3 1 3 1 3 1 Z " fill="#27231A" transform="translate(773,631)"/>
<path d="M0 0 C3 1 3 1 3 1 Z " fill="#211F19" transform="translate(709,587)"/>
<path d="M0 0 C3 1 3 1 3 1 Z " fill="#3E351C" transform="translate(807,584)"/>
<path d="M0 0 C3 1 3 1 3 1 Z " fill="#443A1B" transform="translate(824,579)"/>
<path d="M0 0 C3 1 3 1 3 1 Z " fill="#3C3422" transform="translate(192,565)"/>
<path d="M0 0 C0.66 0 1.32 0 2 0 C1.67 0.66 1.34 1.32 1 2 C0.67 1.34 0.34 0.68 0 0 Z " fill="#332F23" transform="translate(240,528)"/>
<path d="M0 0 C3 1 3 1 3 1 Z " fill="#312B20" transform="translate(424,501)"/>
<path d="" fill="#342F24" transform="translate(0,0)"/>
<path d="M0 0 C0.33 0.66 0.66 1.32 1 2 C0.34 1.67 -0.32 1.34 -1 1 C-0.67 0.67 -0.34 0.34 0 0 Z " fill="#332E22" transform="translate(245,486)"/>
<path d="M0 0 C3 1 3 1 3 1 Z " fill="#27251B" transform="translate(265,436)"/>
<path d="" fill="#29251B" transform="translate(0,0)"/>
<path d="M0 0 C3 1 3 1 3 1 Z " fill="#28251C" transform="translate(294,435)"/>
<path d="M0 0 C0.66 0 1.32 0 2 0 C1.67 0.66 1.34 1.32 1 2 C0.67 1.34 0.34 0.68 0 0 Z " fill="#25221B" transform="translate(227,430)"/>
<path d="M0 0 C3 1 3 1 3 1 Z " fill="#423819" transform="translate(828,415)"/>
<path d="" fill="#342E19" transform="translate(0,0)"/>
<path d="M0 0 C3 1 3 1 3 1 Z " fill="#433A18" transform="translate(576,369)"/>
<path d="" fill="#423815" transform="translate(0,0)"/>
<path d="M0 0 C0.66 0 1.32 0 2 0 C1.67 0.66 1.34 1.32 1 2 C0.67 1.34 0.34 0.68 0 0 Z " fill="#413714" transform="translate(310,265)"/>
<path d="M0 0 C3 1 3 1 3 1 Z " fill="#423714" transform="translate(304,264)"/>
<path d="" fill="#40361B" transform="translate(0,0)"/>
<path d="M0 0 C2 1 2 1 2 1 Z " fill="#504219" transform="translate(250,715)"/>
<path d="" fill="#292519" transform="translate(0,0)"/>
<path d="" fill="#2A231A" transform="translate(0,0)"/>
<path d="M0 0 C2 1 2 1 2 1 Z " fill="#473E1E" transform="translate(243,689)"/>
<path d="" fill="#28231A" transform="translate(0,0)"/>
<path d="M0 0 C2 1 2 1 2 1 Z " fill="#40351A" transform="translate(238,688)"/>
<path d="" fill="#272319" transform="translate(0,0)"/>
<path d="M0 0 C2 1 2 1 2 1 Z " fill="#27231B" transform="translate(835,667)"/>
<path d="M0 0 C2 1 2 1 2 1 Z " fill="#3C361F" transform="translate(356,656)"/>
<path d="" fill="#3B3520" transform="translate(0,0)"/>
<path d="" fill="#3B341A" transform="translate(0,0)"/>
<path d="" fill="#24211C" transform="translate(0,0)"/>
<path d="M0 0 C2 1 2 1 2 1 Z " fill="#27231A" transform="translate(792,648)"/>
<path d="M0 0 C2 1 2 1 2 1 Z " fill="#443C21" transform="translate(283,638)"/>
<path d="M0 0 C2 1 2 1 2 1 Z " fill="#453C21" transform="translate(296,637)"/>
<path d="" fill="#201A15" transform="translate(0,0)"/>
<path d="" fill="#2B271C" transform="translate(0,0)"/>
<path d="M0 0 C2 1 2 1 2 1 Z " fill="#29241B" transform="translate(796,631)"/>
<path d="M0 0 C2 1 2 1 2 1 Z " fill="#2B261C" transform="translate(793,631)"/>
<path d="M0 0 C2 1 2 1 2 1 Z " fill="#2B251C" transform="translate(788,631)"/>
<path d="" fill="#201C16" transform="translate(0,0)"/>
<path d="M0 0 C2 1 2 1 2 1 Z " fill="#433D1F" transform="translate(240,627)"/>
<path d="" fill="#201C16" transform="translate(0,0)"/>
<path d="M0 0 C2 1 2 1 2 1 Z " fill="#2A251C" transform="translate(837,615)"/>
<path d="" fill="#1D1C17" transform="translate(0,0)"/>
<path d="M0 0 C2 1 2 1 2 1 Z " fill="#3C3523" transform="translate(260,608)"/>
<path d="" fill="#332E1B" transform="translate(0,0)"/>
<path d="M0 0 C2 1 2 1 2 1 Z " fill="#39331F" transform="translate(333,600)"/>
<path d="" fill="#343122" transform="translate(0,0)"/>
<path d="M0 0 C2 1 2 1 2 1 Z " fill="#383120" transform="translate(220,567)"/>
<path d="M0 0 C2 1 2 1 2 1 Z " fill="#3A3320" transform="translate(204,567)"/>
<path d="M0 0 C2 1 2 1 2 1 Z " fill="#353020" transform="translate(339,566)"/>
<path d="" fill="#231D17" transform="translate(0,0)"/>
<path d="" fill="#201D18" transform="translate(0,0)"/>
<path d="" fill="#231F18" transform="translate(0,0)"/>
<path d="" fill="#312A1D" transform="translate(0,0)"/>
<path d="" fill="#413A23" transform="translate(0,0)"/>
<path d="" fill="#322C1E" transform="translate(0,0)"/>
<path d="" fill="#37311E" transform="translate(0,0)"/>
<path d="" fill="#333123" transform="translate(0,0)"/>
<path d="" fill="#4F441B" transform="translate(0,0)"/>
<path d="" fill="#26231A" transform="translate(0,0)"/>
<path d="M0 0 C2 1 2 1 2 1 Z " fill="#342D19" transform="translate(147,500)"/>
<path d="M0 0 C2 1 2 1 2 1 Z " fill="#353226" transform="translate(209,491)"/>
<path d="" fill="#3E3619" transform="translate(0,0)"/>
<path d="M0 0 C2 1 2 1 2 1 Z " fill="#2E291C" transform="translate(147,472)"/>
<path d="M0 0 C2 1 2 1 2 1 Z " fill="#332F23" transform="translate(226,469)"/>
<path d="" fill="#232117" transform="translate(0,0)"/>
<path d="" fill="#24201A" transform="translate(0,0)"/>
<path d="M0 0 C2 1 2 1 2 1 Z " fill="#29271B" transform="translate(238,448)"/>
<path d="" fill="#2B271C" transform="translate(0,0)"/>
<path d="M0 0 C2 1 2 1 2 1 Z " fill="#26221B" transform="translate(258,435)"/>
<path d="M0 0 C2 1 2 1 2 1 Z " fill="#24221A" transform="translate(299,434)"/>
<path d="" fill="#28261A" transform="translate(0,0)"/>
<path d="" fill="#25231A" transform="translate(0,0)"/>
<path d="" fill="#221D14" transform="translate(0,0)"/>
<path d="" fill="#433916" transform="translate(0,0)"/>
<path d="" fill="#3A341B" transform="translate(0,0)"/>
<path d="M0 0 C2 1 2 1 2 1 Z " fill="#4C4115" transform="translate(820,369)"/>
<path d="M0 0 C2 1 2 1 2 1 Z " fill="#473C19" transform="translate(675,368)"/>
<path d="M0 0 C2 1 2 1 2 1 Z " fill="#433718" transform="translate(589,368)"/>
<path d="M0 0 C2 1 2 1 2 1 Z " fill="#463B16" transform="translate(584,368)"/>
<path d="M0 0 C2 1 2 1 2 1 Z " fill="#373116" transform="translate(425,339)"/>
<path d="M0 0 C2 1 2 1 2 1 Z " fill="#3E3415" transform="translate(178,281)"/>
<path d="M0 0 C2 1 2 1 2 1 Z " fill="#403516" transform="translate(184,280)"/>
<path d="M0 0 C2 1 2 1 2 1 Z " fill="#433816" transform="translate(196,272)"/>
<path d="" fill="#7A5F09" transform="translate(0,0)"/>
<path d="" fill="#775D08" transform="translate(0,0)"/>
<path d="" fill="#795C09" transform="translate(0,0)"/>
<path d="" fill="#7E610A" transform="translate(0,0)"/>
<path d="" fill="#7C5F0A" transform="translate(0,0)"/>
<path d="" fill="#785D08" transform="translate(0,0)"/>
<path d="" fill="#7A5E08" transform="translate(0,0)"/>
<path d="" fill="#7B6109" transform="translate(0,0)"/>
<path d="" fill="#775D08" transform="translate(0,0)"/>
<path d="" fill="#82660A" transform="translate(0,0)"/>
<path d="" fill="#7F640B" transform="translate(0,0)"/>
<path d="" fill="#755C07" transform="translate(0,0)"/>
<path d="" fill="#80650A" transform="translate(0,0)"/>
<path d="" fill="#7C6109" transform="translate(0,0)"/>
<path d="" fill="#81640A" transform="translate(0,0)"/>
<path d="" fill="#82670B" transform="translate(0,0)"/>
<path d="" fill="#80670A" transform="translate(0,0)"/>
<path d="" fill="#81650B" transform="translate(0,0)"/>
<path d="" fill="#80660B" transform="translate(0,0)"/>
<path d="" fill="#80640B" transform="translate(0,0)"/>
<path d="" fill="#82660A" transform="translate(0,0)"/>
<path d="" fill="#84670B" transform="translate(0,0)"/>
<path d="" fill="#83680D" transform="translate(0,0)"/>
<path d="" fill="#7F640A" transform="translate(0,0)"/>
<path d="" fill="#85680C" transform="translate(0,0)"/>
<path d="" fill="#7C610A" transform="translate(0,0)"/>
<path d="" fill="#86690D" transform="translate(0,0)"/>
<path d="" fill="#866A0F" transform="translate(0,0)"/>
<path d="" fill="#816911" transform="translate(0,0)"/>
<path d="" fill="#826A11" transform="translate(0,0)"/>
<path d="" fill="#806810" transform="translate(0,0)"/>
<path d="" fill="#81650C" transform="translate(0,0)"/>
<path d="" fill="#866A12" transform="translate(0,0)"/>
<path d="" fill="#463A18" transform="translate(0,0)"/>
<path d="" fill="#473C1A" transform="translate(0,0)"/>
<path d="" fill="#3E3518" transform="translate(0,0)"/>
<path d="" fill="#3E3419" transform="translate(0,0)"/>
<path d="" fill="#4D4119" transform="translate(0,0)"/>
<path d="" fill="#4B4018" transform="translate(0,0)"/>
<path d="" fill="#473D16" transform="translate(0,0)"/>
<path d="" fill="#50421B" transform="translate(0,0)"/>
<path d="" fill="#4F421B" transform="translate(0,0)"/>
<path d="" fill="#352B17" transform="translate(0,0)"/>
<path d="" fill="#4E4019" transform="translate(0,0)"/>
<path d="" fill="#312A18" transform="translate(0,0)"/>
<path d="" fill="#372E17" transform="translate(0,0)"/>
<path d="" fill="#4D4218" transform="translate(0,0)"/>
<path d="" fill="#4D3F1A" transform="translate(0,0)"/>
<path d="" fill="#2B251A" transform="translate(0,0)"/>
<path d="" fill="#4F4417" transform="translate(0,0)"/>
<path d="" fill="#504319" transform="translate(0,0)"/>
<path d="" fill="#2C2619" transform="translate(0,0)"/>
<path d="" fill="#332C18" transform="translate(0,0)"/>
<path d="" fill="#4D3F1A" transform="translate(0,0)"/>
<path d="" fill="#52441C" transform="translate(0,0)"/>
<path d="" fill="#2A251A" transform="translate(0,0)"/>
<path d="" fill="#322916" transform="translate(0,0)"/>
<path d="" fill="#463D1E" transform="translate(0,0)"/>
<path d="" fill="#433B1C" transform="translate(0,0)"/>
<path d="" fill="#463C1D" transform="translate(0,0)"/>
<path d="" fill="#28261B" transform="translate(0,0)"/>
<path d="" fill="#29241B" transform="translate(0,0)"/>
<path d="" fill="#42391A" transform="translate(0,0)"/>
<path d="" fill="#483C20" transform="translate(0,0)"/>
<path d="" fill="#443B1C" transform="translate(0,0)"/>
<path d="" fill="#463C20" transform="translate(0,0)"/>
<path d="" fill="#463B1E" transform="translate(0,0)"/>
<path d="" fill="#4D4018" transform="translate(0,0)"/>
<path d="" fill="#272319" transform="translate(0,0)"/>
<path d="" fill="#27241A" transform="translate(0,0)"/>
<path d="" fill="#423A1E" transform="translate(0,0)"/>
<path d="" fill="#2A271B" transform="translate(0,0)"/>
<path d="" fill="#4A3E1E" transform="translate(0,0)"/>
<path d="" fill="#44391C" transform="translate(0,0)"/>
<path d="" fill="#332C18" transform="translate(0,0)"/>
<path d="" fill="#4F4219" transform="translate(0,0)"/>
<path d="" fill="#302B1A" transform="translate(0,0)"/>
<path d="" fill="#493E1E" transform="translate(0,0)"/>
<path d="" fill="#2D2515" transform="translate(0,0)"/>
<path d="" fill="#40371E" transform="translate(0,0)"/>
<path d="" fill="#2F2818" transform="translate(0,0)"/>
<path d="" fill="#4F4218" transform="translate(0,0)"/>
<path d="" fill="#242119" transform="translate(0,0)"/>
<path d="" fill="#3F391D" transform="translate(0,0)"/>
<path d="" fill="#3D371C" transform="translate(0,0)"/>
<path d="" fill="#453C1D" transform="translate(0,0)"/>
<path d="" fill="#3F371A" transform="translate(0,0)"/>
<path d="" fill="#28231C" transform="translate(0,0)"/>
<path d="" fill="#272419" transform="translate(0,0)"/>
<path d="" fill="#252319" transform="translate(0,0)"/>
<path d="" fill="#4E4219" transform="translate(0,0)"/>
<path d="" fill="#3B331E" transform="translate(0,0)"/>
<path d="" fill="#26211A" transform="translate(0,0)"/>
<path d="" fill="#3E3720" transform="translate(0,0)"/>
<path d="" fill="#2C261A" transform="translate(0,0)"/>
<path d="" fill="#27231C" transform="translate(0,0)"/>
<path d="" fill="#29241B" transform="translate(0,0)"/>
<path d="" fill="#29241B" transform="translate(0,0)"/>
<path d="" fill="#3D351E" transform="translate(0,0)"/>
<path d="" fill="#282219" transform="translate(0,0)"/>
<path d="" fill="#3E371F" transform="translate(0,0)"/>
<path d="" fill="#3F381D" transform="translate(0,0)"/>
<path d="" fill="#27211B" transform="translate(0,0)"/>
<path d="" fill="#4F4117" transform="translate(0,0)"/>
<path d="" fill="#3D361D" transform="translate(0,0)"/>
<path d="" fill="#4C4016" transform="translate(0,0)"/>
<path d="" fill="#4F4016" transform="translate(0,0)"/>
<path d="" fill="#483F1E" transform="translate(0,0)"/>
<path d="" fill="#3C351C" transform="translate(0,0)"/>
<path d="" fill="#3E3720" transform="translate(0,0)"/>
<path d="" fill="#3F3821" transform="translate(0,0)"/>
<path d="" fill="#222018" transform="translate(0,0)"/>
<path d="" fill="#25211B" transform="translate(0,0)"/>
<path d="" fill="#24201A" transform="translate(0,0)"/>
<path d="" fill="#3D3720" transform="translate(0,0)"/>
<path d="" fill="#232119" transform="translate(0,0)"/>
<path d="" fill="#3A321C" transform="translate(0,0)"/>
<path d="" fill="#4F4317" transform="translate(0,0)"/>
<path d="" fill="#3B351F" transform="translate(0,0)"/>
<path d="" fill="#24251B" transform="translate(0,0)"/>
<path d="" fill="#413B1D" transform="translate(0,0)"/>
<path d="" fill="#25211A" transform="translate(0,0)"/>
<path d="" fill="#453C1E" transform="translate(0,0)"/>
<path d="" fill="#282118" transform="translate(0,0)"/>
<path d="" fill="#3B351D" transform="translate(0,0)"/>
<path d="" fill="#27251B" transform="translate(0,0)"/>
<path d="" fill="#28251D" transform="translate(0,0)"/>
<path d="" fill="#27251D" transform="translate(0,0)"/>
<path d="" fill="#28241C" transform="translate(0,0)"/>
<path d="" fill="#383119" transform="translate(0,0)"/>
<path d="" fill="#433C22" transform="translate(0,0)"/>
<path d="" fill="#463E25" transform="translate(0,0)"/>
<path d="" fill="#463F25" transform="translate(0,0)"/>
<path d="" fill="#453C20" transform="translate(0,0)"/>
<path d="" fill="#231C14" transform="translate(0,0)"/>
<path d="" fill="#453A1F" transform="translate(0,0)"/>
<path d="" fill="#242117" transform="translate(0,0)"/>
<path d="" fill="#2C271D" transform="translate(0,0)"/>
<path d="" fill="#473B22" transform="translate(0,0)"/>
<path d="" fill="#241F14" transform="translate(0,0)"/>
<path d="" fill="#201C15" transform="translate(0,0)"/>
<path d="" fill="#38311C" transform="translate(0,0)"/>
<path d="" fill="#28251B" transform="translate(0,0)"/>
<path d="" fill="#3F381F" transform="translate(0,0)"/>
<path d="" fill="#201D13" transform="translate(0,0)"/>
<path d="" fill="#29281C" transform="translate(0,0)"/>
<path d="" fill="#41391E" transform="translate(0,0)"/>
<path d="" fill="#38311C" transform="translate(0,0)"/>
<path d="" fill="#25241D" transform="translate(0,0)"/>
<path d="" fill="#292519" transform="translate(0,0)"/>
<path d="" fill="#201D15" transform="translate(0,0)"/>
<path d="" fill="#372D1A" transform="translate(0,0)"/>
<path d="" fill="#866C11" transform="translate(0,0)"/>
<path d="" fill="#846910" transform="translate(0,0)"/>
<path d="" fill="#473C1E" transform="translate(0,0)"/>
<path d="" fill="#483B18" transform="translate(0,0)"/>
<path d="" fill="#2E271C" transform="translate(0,0)"/>
<path d="" fill="#37311A" transform="translate(0,0)"/>
<path d="" fill="#453B15" transform="translate(0,0)"/>
<path d="" fill="#201B14" transform="translate(0,0)"/>
<path d="" fill="#393320" transform="translate(0,0)"/>
<path d="" fill="#453A15" transform="translate(0,0)"/>
<path d="" fill="#3B331E" transform="translate(0,0)"/>
<path d="" fill="#242219" transform="translate(0,0)"/>
<path d="" fill="#242117" transform="translate(0,0)"/>
<path d="" fill="#4F4115" transform="translate(0,0)"/>
<path d="" fill="#403925" transform="translate(0,0)"/>
<path d="" fill="#3E3824" transform="translate(0,0)"/>
<path d="" fill="#4D4015" transform="translate(0,0)"/>
<path d="" fill="#363222" transform="translate(0,0)"/>
<path d="" fill="#3E3625" transform="translate(0,0)"/>
<path d="" fill="#363221" transform="translate(0,0)"/>
<path d="" fill="#423A1E" transform="translate(0,0)"/>
<path d="" fill="#2B261A" transform="translate(0,0)"/>
<path d="" fill="#413B28" transform="translate(0,0)"/>
<path d="" fill="#3F3A21" transform="translate(0,0)"/>
<path d="" fill="#3A321F" transform="translate(0,0)"/>
<path d="" fill="#3A331E" transform="translate(0,0)"/>
<path d="" fill="#393220" transform="translate(0,0)"/>
<path d="" fill="#3D361F" transform="translate(0,0)"/>
<path d="" fill="#504219" transform="translate(0,0)"/>
<path d="" fill="#1D1B11" transform="translate(0,0)"/>
<path d="" fill="#423921" transform="translate(0,0)"/>
<path d="" fill="#453B1A" transform="translate(0,0)"/>
<path d="" fill="#876B10" transform="translate(0,0)"/>
<path d="" fill="#3B351F" transform="translate(0,0)"/>
<path d="" fill="#342F1A" transform="translate(0,0)"/>
<path d="" fill="#423816" transform="translate(0,0)"/>
<path d="" fill="#4A3E17" transform="translate(0,0)"/>
<path d="" fill="#382F1C" transform="translate(0,0)"/>
<path d="" fill="#201C17" transform="translate(0,0)"/>
<path d="" fill="#352F1F" transform="translate(0,0)"/>
<path d="" fill="#3C341F" transform="translate(0,0)"/>
<path d="" fill="#3A3423" transform="translate(0,0)"/>
<path d="" fill="#383019" transform="translate(0,0)"/>
<path d="" fill="#2B281E" transform="translate(0,0)"/>
<path d="" fill="#27251D" transform="translate(0,0)"/>
<path d="" fill="#27241B" transform="translate(0,0)"/>
<path d="" fill="#26221C" transform="translate(0,0)"/>
<path d="" fill="#25231C" transform="translate(0,0)"/>
<path d="" fill="#24221A" transform="translate(0,0)"/>
<path d="" fill="#22211A" transform="translate(0,0)"/>
<path d="" fill="#211E19" transform="translate(0,0)"/>
<path d="" fill="#221F19" transform="translate(0,0)"/>
<path d="" fill="#382F18" transform="translate(0,0)"/>
<path d="" fill="#312A1E" transform="translate(0,0)"/>
<path d="" fill="#2A281D" transform="translate(0,0)"/>
<path d="" fill="#4C4218" transform="translate(0,0)"/>
<path d="" fill="#3A331C" transform="translate(0,0)"/>
<path d="" fill="#423719" transform="translate(0,0)"/>
<path d="" fill="#353322" transform="translate(0,0)"/>
<path d="" fill="#26231D" transform="translate(0,0)"/>
<path d="" fill="#1F1E16" transform="translate(0,0)"/>
<path d="" fill="#3E371E" transform="translate(0,0)"/>
<path d="" fill="#4A3D19" transform="translate(0,0)"/>
<path d="" fill="#4C4019" transform="translate(0,0)"/>
<path d="" fill="#343123" transform="translate(0,0)"/>
<path d="" fill="#1E1C16" transform="translate(0,0)"/>
<path d="" fill="#362F1E" transform="translate(0,0)"/>
<path d="" fill="#352F1F" transform="translate(0,0)"/>
<path d="" fill="#353121" transform="translate(0,0)"/>
<path d="" fill="#332E20" transform="translate(0,0)"/>
<path d="" fill="#322D1F" transform="translate(0,0)"/>
<path d="" fill="#3B3321" transform="translate(0,0)"/>
<path d="" fill="#221E19" transform="translate(0,0)"/>
<path d="" fill="#363020" transform="translate(0,0)"/>
<path d="" fill="#342E1F" transform="translate(0,0)"/>
<path d="" fill="#362F1F" transform="translate(0,0)"/>
<path d="" fill="#322D1D" transform="translate(0,0)"/>
<path d="" fill="#2F2B1F" transform="translate(0,0)"/>
<path d="" fill="#3B331F" transform="translate(0,0)"/>
<path d="" fill="#39351F" transform="translate(0,0)"/>
<path d="" fill="#383220" transform="translate(0,0)"/>
<path d="" fill="#302D1F" transform="translate(0,0)"/>
<path d="" fill="#393420" transform="translate(0,0)"/>
<path d="" fill="#362F1E" transform="translate(0,0)"/>
<path d="" fill="#37301F" transform="translate(0,0)"/>
<path d="" fill="#342E20" transform="translate(0,0)"/>
<path d="" fill="#373120" transform="translate(0,0)"/>
<path d="" fill="#211D15" transform="translate(0,0)"/>
<path d="" fill="#363121" transform="translate(0,0)"/>
<path d="" fill="#52431C" transform="translate(0,0)"/>
<path d="" fill="#322E21" transform="translate(0,0)"/>
<path d="" fill="#3C3622" transform="translate(0,0)"/>
<path d="" fill="#51451C" transform="translate(0,0)"/>
<path d="" fill="#21211B" transform="translate(0,0)"/>
<path d="" fill="#25221A" transform="translate(0,0)"/>
<path d="" fill="#36311D" transform="translate(0,0)"/>
<path d="" fill="#3C361F" transform="translate(0,0)"/>
<path d="" fill="#352F21" transform="translate(0,0)"/>
<path d="" fill="#38311D" transform="translate(0,0)"/>
<path d="" fill="#38331E" transform="translate(0,0)"/>
<path d="" fill="#22211A" transform="translate(0,0)"/>
<path d="" fill="#423922" transform="translate(0,0)"/>
<path d="" fill="#3C331D" transform="translate(0,0)"/>
<path d="" fill="#342E1E" transform="translate(0,0)"/>
<path d="" fill="#212119" transform="translate(0,0)"/>
<path d="" fill="#292518" transform="translate(0,0)"/>
<path d="" fill="#302A1B" transform="translate(0,0)"/>
<path d="" fill="#37311F" transform="translate(0,0)"/>
<path d="" fill="#232119" transform="translate(0,0)"/>
<path d="" fill="#37301F" transform="translate(0,0)"/>
<path d="" fill="#231F1A" transform="translate(0,0)"/>
<path d="" fill="#2D2922" transform="translate(0,0)"/>
<path d="" fill="#312B23" transform="translate(0,0)"/>
<path d="" fill="#373120" transform="translate(0,0)"/>
<path d="" fill="#25231B" transform="translate(0,0)"/>
<path d="" fill="#27231A" transform="translate(0,0)"/>
<path d="" fill="#332C21" transform="translate(0,0)"/>
<path d="" fill="#38321F" transform="translate(0,0)"/>
<path d="" fill="#342F1E" transform="translate(0,0)"/>
<path d="" fill="#2B281B" transform="translate(0,0)"/>
<path d="" fill="#29241C" transform="translate(0,0)"/>
<path d="" fill="#28241A" transform="translate(0,0)"/>
<path d="" fill="#352F21" transform="translate(0,0)"/>
<path d="" fill="#322C22" transform="translate(0,0)"/>
<path d="" fill="#322E20" transform="translate(0,0)"/>
<path d="" fill="#322D22" transform="translate(0,0)"/>
<path d="" fill="#2F2B20" transform="translate(0,0)"/>
<path d="" fill="#352E22" transform="translate(0,0)"/>
<path d="" fill="#363223" transform="translate(0,0)"/>
<path d="" fill="#332D21" transform="translate(0,0)"/>
<path d="" fill="#52451B" transform="translate(0,0)"/>
<path d="" fill="#312D23" transform="translate(0,0)"/>
<path d="" fill="#322B22" transform="translate(0,0)"/>
<path d="" fill="#2F271C" transform="translate(0,0)"/>
<path d="" fill="#27251C" transform="translate(0,0)"/>
<path d="" fill="#332E1D" transform="translate(0,0)"/>
<path d="" fill="#3A3522" transform="translate(0,0)"/>
<path d="" fill="#333221" transform="translate(0,0)"/>
<path d="" fill="#26231D" transform="translate(0,0)"/>
<path d="" fill="#2F2A1A" transform="translate(0,0)"/>
<path d="" fill="#322C20" transform="translate(0,0)"/>
<path d="" fill="#2E2B1E" transform="translate(0,0)"/>
<path d="" fill="#302A1E" transform="translate(0,0)"/>
<path d="" fill="#302C1E" transform="translate(0,0)"/>
<path d="" fill="#35311E" transform="translate(0,0)"/>
<path d="" fill="#35301F" transform="translate(0,0)"/>
<path d="" fill="#332D23" transform="translate(0,0)"/>
<path d="" fill="#282317" transform="translate(0,0)"/>
<path d="" fill="#322F22" transform="translate(0,0)"/>
<path d="" fill="#4E4318" transform="translate(0,0)"/>
<path d="" fill="#322C1F" transform="translate(0,0)"/>
<path d="" fill="#373020" transform="translate(0,0)"/>
<path d="" fill="#28241B" transform="translate(0,0)"/>
<path d="" fill="#332E22" transform="translate(0,0)"/>
<path d="" fill="#312E21" transform="translate(0,0)"/>
<path d="" fill="#4E431B" transform="translate(0,0)"/>
<path d="" fill="#322B20" transform="translate(0,0)"/>
<path d="" fill="#332E24" transform="translate(0,0)"/>
<path d="" fill="#332D21" transform="translate(0,0)"/>
<path d="" fill="#342D21" transform="translate(0,0)"/>
<path d="" fill="#342D22" transform="translate(0,0)"/>
<path d="" fill="#312B20" transform="translate(0,0)"/>
<path d="" fill="#24221C" transform="translate(0,0)"/>
<path d="" fill="#312C1E" transform="translate(0,0)"/>
<path d="" fill="#322D1F" transform="translate(0,0)"/>
<path d="" fill="#2F2B1D" transform="translate(0,0)"/>
<path d="" fill="#2F2B1D" transform="translate(0,0)"/>
<path d="" fill="#221F1C" transform="translate(0,0)"/>
<path d="" fill="#39331B" transform="translate(0,0)"/>
<path d="" fill="#2C291C" transform="translate(0,0)"/>
<path d="" fill="#332E21" transform="translate(0,0)"/>
<path d="" fill="#342E22" transform="translate(0,0)"/>
<path d="" fill="#333023" transform="translate(0,0)"/>
<path d="" fill="#241F19" transform="translate(0,0)"/>
<path d="" fill="#332F23" transform="translate(0,0)"/>
<path d="" fill="#2E2B17" transform="translate(0,0)"/>
<path d="" fill="#363224" transform="translate(0,0)"/>
<path d="" fill="#2D2A1D" transform="translate(0,0)"/>
<path d="" fill="#302B1E" transform="translate(0,0)"/>
<path d="" fill="#302E1B" transform="translate(0,0)"/>
<path d="" fill="#302A1B" transform="translate(0,0)"/>
<path d="" fill="#342F1D" transform="translate(0,0)"/>
<path d="" fill="#312E20" transform="translate(0,0)"/>
<path d="" fill="#2E291E" transform="translate(0,0)"/>
<path d="" fill="#322E24" transform="translate(0,0)"/>
<path d="" fill="#353124" transform="translate(0,0)"/>
<path d="" fill="#342E23" transform="translate(0,0)"/>
<path d="" fill="#756014" transform="translate(0,0)"/>
<path d="" fill="#333025" transform="translate(0,0)"/>
<path d="" fill="#302E23" transform="translate(0,0)"/>
<path d="" fill="#312F22" transform="translate(0,0)"/>
<path d="" fill="#2F2C22" transform="translate(0,0)"/>
<path d="" fill="#322F24" transform="translate(0,0)"/>
<path d="" fill="#333023" transform="translate(0,0)"/>
<path d="" fill="#322F24" transform="translate(0,0)"/>
<path d="" fill="#373024" transform="translate(0,0)"/>
<path d="" fill="#333023" transform="translate(0,0)"/>
<path d="" fill="#322E21" transform="translate(0,0)"/>
<path d="" fill="#352F23" transform="translate(0,0)"/>
<path d="" fill="#2B271D" transform="translate(0,0)"/>
<path d="" fill="#2E2C1F" transform="translate(0,0)"/>
<path d="" fill="#2E2B1F" transform="translate(0,0)"/>
<path d="" fill="#2F291C" transform="translate(0,0)"/>
<path d="" fill="#2D291B" transform="translate(0,0)"/>
<path d="" fill="#36311F" transform="translate(0,0)"/>
<path d="" fill="#2E2A1F" transform="translate(0,0)"/>
<path d="" fill="#211E18" transform="translate(0,0)"/>
<path d="" fill="#222019" transform="translate(0,0)"/>
<path d="" fill="#2A261C" transform="translate(0,0)"/>
<path d="" fill="#36311F" transform="translate(0,0)"/>
<path d="" fill="#2C281B" transform="translate(0,0)"/>
<path d="" fill="#2A271B" transform="translate(0,0)"/>
<path d="" fill="#282719" transform="translate(0,0)"/>
<path d="" fill="#29251A" transform="translate(0,0)"/>
<path d="" fill="#3E3414" transform="translate(0,0)"/>
<path d="" fill="#2B251D" transform="translate(0,0)"/>
<path d="" fill="#2B281C" transform="translate(0,0)"/>
<path d="" fill="#3D3014" transform="translate(0,0)"/>
<path d="" fill="#2B291D" transform="translate(0,0)"/>
<path d="" fill="#2C281C" transform="translate(0,0)"/>
<path d="" fill="#232218" transform="translate(0,0)"/>
<path d="" fill="#876D12" transform="translate(0,0)"/>
<path d="" fill="#413715" transform="translate(0,0)"/>
<path d="" fill="#2E291B" transform="translate(0,0)"/>
<path d="" fill="#2B261C" transform="translate(0,0)"/>
<path d="" fill="#2B281D" transform="translate(0,0)"/>
<path d="" fill="#2E2A20" transform="translate(0,0)"/>
<path d="" fill="#2A261B" transform="translate(0,0)"/>
<path d="" fill="#2E2B1E" transform="translate(0,0)"/>
<path d="" fill="#413815" transform="translate(0,0)"/>
<path d="" fill="#353020" transform="translate(0,0)"/>
<path d="" fill="#2B281E" transform="translate(0,0)"/>
<path d="" fill="#29271C" transform="translate(0,0)"/>
<path d="" fill="#2D2920" transform="translate(0,0)"/>
<path d="" fill="#2A291B" transform="translate(0,0)"/>
<path d="" fill="#2F2D1F" transform="translate(0,0)"/>
<path d="" fill="#2B271E" transform="translate(0,0)"/>
<path d="" fill="#25211D" transform="translate(0,0)"/>
<path d="" fill="#3C3313" transform="translate(0,0)"/>
<path d="" fill="#262117" transform="translate(0,0)"/>
<path d="" fill="#29261D" transform="translate(0,0)"/>
<path d="" fill="#27241C" transform="translate(0,0)"/>
<path d="" fill="#28261B" transform="translate(0,0)"/>
<path d="" fill="#25221D" transform="translate(0,0)"/>
<path d="" fill="#423914" transform="translate(0,0)"/>
<path d="" fill="#27231C" transform="translate(0,0)"/>
<path d="" fill="#362D15" transform="translate(0,0)"/>
<path d="" fill="#23201A" transform="translate(0,0)"/>
<path d="" fill="#34301D" transform="translate(0,0)"/>
<path d="" fill="#26251A" transform="translate(0,0)"/>
<path d="" fill="#26241C" transform="translate(0,0)"/>
<path d="" fill="#242119" transform="translate(0,0)"/>
<path d="" fill="#232219" transform="translate(0,0)"/>
<path d="" fill="#242119" transform="translate(0,0)"/>
<path d="" fill="#26211B" transform="translate(0,0)"/>
<path d="" fill="#433A16" transform="translate(0,0)"/>
<path d="" fill="#84690E" transform="translate(0,0)"/>
<path d="" fill="#24241A" transform="translate(0,0)"/>
<path d="" fill="#24201A" transform="translate(0,0)"/>
<path d="" fill="#23211A" transform="translate(0,0)"/>
<path d="" fill="#433816" transform="translate(0,0)"/>
<path d="" fill="#413714" transform="translate(0,0)"/>
<path d="" fill="#242118" transform="translate(0,0)"/>
<path d="" fill="#232119" transform="translate(0,0)"/>
<path d="" fill="#433814" transform="translate(0,0)"/>
<path d="" fill="#25221A" transform="translate(0,0)"/>
<path d="" fill="#222017" transform="translate(0,0)"/>
<path d="" fill="#312E1A" transform="translate(0,0)"/>
<path d="" fill="#232018" transform="translate(0,0)"/>
<path d="" fill="#28241A" transform="translate(0,0)"/>
<path d="" fill="#26221A" transform="translate(0,0)"/>
<path d="" fill="#28231B" transform="translate(0,0)"/>
<path d="" fill="#24221B" transform="translate(0,0)"/>
<path d="" fill="#262219" transform="translate(0,0)"/>
<path d="" fill="#27211A" transform="translate(0,0)"/>
<path d="" fill="#272319" transform="translate(0,0)"/>
<path d="" fill="#27241A" transform="translate(0,0)"/>
<path d="" fill="#222119" transform="translate(0,0)"/>
<path d="" fill="#242019" transform="translate(0,0)"/>
<path d="" fill="#363120" transform="translate(0,0)"/>
<path d="" fill="#463B17" transform="translate(0,0)"/>
<path d="" fill="#2D2718" transform="translate(0,0)"/>
<path d="" fill="#383120" transform="translate(0,0)"/>
<path d="" fill="#211E17" transform="translate(0,0)"/>
<path d="" fill="#25241A" transform="translate(0,0)"/>
<path d="" fill="#2D2718" transform="translate(0,0)"/>
<path d="" fill="#292316" transform="translate(0,0)"/>
<path d="" fill="#38311E" transform="translate(0,0)"/>
<path d="" fill="#2E2A18" transform="translate(0,0)"/>
<path d="" fill="#443A16" transform="translate(0,0)"/>
<path d="" fill="#332C1A" transform="translate(0,0)"/>
<path d="" fill="#342F1B" transform="translate(0,0)"/>
<path d="" fill="#332C16" transform="translate(0,0)"/>
<path d="" fill="#352E19" transform="translate(0,0)"/>
<path d="" fill="#362F19" transform="translate(0,0)"/>
<path d="" fill="#3A3116" transform="translate(0,0)"/>
<path d="" fill="#36311A" transform="translate(0,0)"/>
<path d="" fill="#5B4C17" transform="translate(0,0)"/>
<path d="" fill="#3C3619" transform="translate(0,0)"/>
<path d="" fill="#433817" transform="translate(0,0)"/>
<path d="" fill="#453A1C" transform="translate(0,0)"/>
<path d="" fill="#423D1B" transform="translate(0,0)"/>
<path d="" fill="#453C19" transform="translate(0,0)"/>
<path d="" fill="#3F3616" transform="translate(0,0)"/>
<path d="" fill="#403718" transform="translate(0,0)"/>
<path d="" fill="#554816" transform="translate(0,0)"/>
<path d="" fill="#4A3F18" transform="translate(0,0)"/>
<path d="" fill="#493D17" transform="translate(0,0)"/>
<path d="" fill="#463C19" transform="translate(0,0)"/>
<path d="" fill="#423917" transform="translate(0,0)"/>
<path d="" fill="#463D19" transform="translate(0,0)"/>
<path d="" fill="#463B1A" transform="translate(0,0)"/>
<path d="" fill="#483E18" transform="translate(0,0)"/>
<path d="" fill="#514417" transform="translate(0,0)"/>
<path d="" fill="#443A19" transform="translate(0,0)"/>
<path d="" fill="#463E19" transform="translate(0,0)"/>
<path d="" fill="#443C18" transform="translate(0,0)"/>
<path d="" fill="#443817" transform="translate(0,0)"/>
<path d="" fill="#423717" transform="translate(0,0)"/>
<path d="" fill="#463B15" transform="translate(0,0)"/>
<path d="" fill="#443A13" transform="translate(0,0)"/>
<path d="" fill="#82690C" transform="translate(0,0)"/>
<path d="" fill="#7E6715" transform="translate(0,0)"/>
<path d="" fill="#5A4C15" transform="translate(0,0)"/>
<path d="" fill="#382E15" transform="translate(0,0)"/>
<path d="" fill="#443B16" transform="translate(0,0)"/>
<path d="" fill="#373216" transform="translate(0,0)"/>
<path d="" fill="#362F19" transform="translate(0,0)"/>
<path d="" fill="#83690C" transform="translate(0,0)"/>
<path d="" fill="#463915" transform="translate(0,0)"/>
<path d="" fill="#3B3214" transform="translate(0,0)"/>
<path d="" fill="#856B0E" transform="translate(0,0)"/>
<path d="" fill="#3B3113" transform="translate(0,0)"/>
<path d="" fill="#83680B" transform="translate(0,0)"/>
<path d="" fill="#836A0B" transform="translate(0,0)"/>
<path d="" fill="#735D14" transform="translate(0,0)"/>
<path d="" fill="#3C3311" transform="translate(0,0)"/>
<path d="" fill="#3F3415" transform="translate(0,0)"/>
<path d="" fill="#3F3513" transform="translate(0,0)"/>
<path d="" fill="#3D351B" transform="translate(0,0)"/>
<path d="" fill="#3D3516" transform="translate(0,0)"/>
<path d="" fill="#3B3211" transform="translate(0,0)"/>
<path d="" fill="#3E3513" transform="translate(0,0)"/>
<path d="" fill="#3F3515" transform="translate(0,0)"/>
<path d="" fill="#3E3513" transform="translate(0,0)"/>
<path d="" fill="#433616" transform="translate(0,0)"/>
<path d="" fill="#403717" transform="translate(0,0)"/>
<path d="" fill="#403615" transform="translate(0,0)"/>
<path d="" fill="#433916" transform="translate(0,0)"/>
<path d="" fill="#403616" transform="translate(0,0)"/>
<path d="" fill="#433918" transform="translate(0,0)"/>
<path d="" fill="#403715" transform="translate(0,0)"/>
<path d="" fill="#423715" transform="translate(0,0)"/>
<path d="" fill="#413714" transform="translate(0,0)"/>
<path d="" fill="#3F3712" transform="translate(0,0)"/>
<path d="" fill="#403613" transform="translate(0,0)"/>
<path d="" fill="#463A14" transform="translate(0,0)"/>
<path d="" fill="#816911" transform="translate(0,0)"/>
<path d="" fill="#806811" transform="translate(0,0)"/>
<path d="" fill="#816A0F" transform="translate(0,0)"/>
<path d="" fill="#896E0E" transform="translate(0,0)"/>
<path d="" fill="#896F0D" transform="translate(0,0)"/>
<path d="" fill="#866C10" transform="translate(0,0)"/>
<path d="" fill="#866B0C" transform="translate(0,0)"/>
<path d="" fill="#7B6109" transform="translate(0,0)"/>
<path d="" fill="#866A0C" transform="translate(0,0)"/>
<path d="" fill="#795E09" transform="translate(0,0)"/>
<path d="" fill="#85680C" transform="translate(0,0)"/>
<path d="" fill="#84670C" transform="translate(0,0)"/>
<path d="" fill="#866A0C" transform="translate(0,0)"/>
<path d="" fill="#795D08" transform="translate(0,0)"/>
<path d="" fill="#846A0B" transform="translate(0,0)"/>
<path d="" fill="#85690B" transform="translate(0,0)"/>
<path d="" fill="#856A0C" transform="translate(0,0)"/>
<path d="" fill="#80640C" transform="translate(0,0)"/>
<path d="" fill="#866C0D" transform="translate(0,0)"/>
<path d="" fill="#856A0D" transform="translate(0,0)"/>
<path d="" fill="#82670D" transform="translate(0,0)"/>
<path d="" fill="#84680A" transform="translate(0,0)"/>
<path d="" fill="#83670C" transform="translate(0,0)"/>
<path d="" fill="#83670B" transform="translate(0,0)"/>
<path d="" fill="#83670B" transform="translate(0,0)"/>
<path d="" fill="#795F0A" transform="translate(0,0)"/>
<path d="" fill="#7C620E" transform="translate(0,0)"/>
<path d="" fill="#83670B" transform="translate(0,0)"/>
<path d="" fill="#82670A" transform="translate(0,0)"/>
<path d="" fill="#84680B" transform="translate(0,0)"/>
<path d="" fill="#83680A" transform="translate(0,0)"/>
<path d="" fill="#866A0D" transform="translate(0,0)"/>
<path d="" fill="#83670B" transform="translate(0,0)"/>
<path d="" fill="#856A0D" transform="translate(0,0)"/>
</svg>
